<svg xmlns="http://www.w3.org/2000/svg" xmlns:xlink="http://www.w3.org/1999/xlink" viewBox="-10 -10 151 91" fill="#fff" fill-rule="evenodd" stroke="#000" stroke-linecap="round" stroke-linejoin="round" font-family="Roboto" font-size="14" text-anchor="middle"><use xlink:href="#A" x=".5" y=".5"/><symbol id="A" overflow="visible"><g stroke-width=".5"><path d="M20 20h90v30H20z"/><path d="M50 20v30m30-30v30" fill="none"/><path d="M30 50V20l-2.5 7.5h5L30 20" fill="#000"/><path d="M40 50V20" fill="none"/><path d="M37.5 42.5h5L40 50z" fill="#000"/><path d="M10 26l1.111-6 1.667 10 1.667-10 1.667 10 1.667-10 1.667 10L20 26" fill="none"/><g fill="#000"><path d="M90 20l10 30v-8l-5 2 5 6"/><path d="M90 50l10-30v8l-4.5-2 4.5-6"/></g><g fill="none"><path d="M57.5 30h5m0 10h-5"/><path d="M60 30V0m0 40v30m7.5-40h5m0 10h-5"/><path d="M70 30V0m0 40v30"/></g><path d="M120 38h10v12h-10z"/><path d="M122.5 50l5-12M0 38h10v12H0z"/><path d="M7.5 50l-5-12"/><path d="M110 26l1.111-6 1.667 10 1.667-10 1.667 10 1.667-10 1.667 10 .556-4" fill="none"/><path d="M110 38h10v12h-10z"/><path d="M120 38l-5 6 5 6" fill="none"/><path d="M10 38h10v12H10z"/><path d="M10 38l5 6-5 6" fill="none"/></g><text fill="#000" font-size="7" text-anchor="end" stroke="none"><tspan x="57.994" y="66.812">1</tspan><tspan x="57.994" y="8.998">2</tspan><tspan x="68.004" y="66.812">3</tspan><tspan x="68.004" y="8.998">4</tspan></text></symbol></svg>