<svg xmlns="http://www.w3.org/2000/svg" viewBox="0 0 100 100">
    <line x1="0" y1="50" x2="50" y2="50" stroke="black"/>
    <line x1="50" y1="50" x2="50" y2="100" stroke="black"/>
    <polygon points="30,60 30,90 60,90 60,60" fill="black"/>
    <polygon points="31,61 31,89 59,89 59,61" fill="white"/>
    <line x1="40" y1="60" x2="40" y2="86" stroke="black"/>
    <polygon points="40,89 38,80 42,80" fill="black"/>
    <line x1="60" y1="75" x2="62" y2="80" stroke="black"/>
    <line x1="62" y1="80" x2="66" y2="70" stroke="black"/>
    <line x1="66" y1="70" x2="70" y2="80" stroke="black"/>
    <line x1="70" y1="80" x2="74" y2="70" stroke="black"/>
    <line x1="74" y1="70" x2="76" y2="75" stroke="black"/>
    <line x1="65" y1="85" x2="72" y2="65" stroke="black"/>
    <polygon points="74,59 70,65 74,66" fill="black"/>
    <line x1="50" y1="60" x2="45" y2="55" stroke="black" stroke-dasharray="2 2"/>
    <line x1="45" y1="55" x2="25" y2="55" stroke="black" stroke-dasharray="2 2"/>
    <line x1="25" y1="55" x2="25" y2="75" stroke="black" stroke-dasharray="2 2"/>
    <line x1="25" y1="75" x2="30" y2="75" stroke="black" stroke-dasharray="2 2"/>
</svg>