<svg xmlns="http://www.w3.org/2000/svg" viewBox="0 0 1000 1000">
    <path d="M550 600v25-1" stroke="black" stroke-width="2"/>
    <path d="M550 675v30-1" stroke="black" stroke-width="2"/>
    <path d="M525 650l25-25 25 25-25 25z" stroke="black" stroke-width="1" fill="white"/>
    <path d="M526 650l9-3 0 6z" fill="black"/>
    <path d="M574 650l-9-3 0 6z" fill="black"/>
    <path d="M530 650h40-1" stroke="black" stroke-width="1"/>

    <path d="M 600 670 A 10 10 0 0 1 580 670" fill="none" stroke="black" stroke-width="1"/>
    <path d="M 600 630 A 10 10 0 1 0 580 630" fill="none" stroke="black" stroke-width="1"/>
    <path d="M580 670l20-40" stroke="black" stroke-width="1"/>
    <path d="M580 630l20+40" stroke="black" stroke-width="1"/>
    <path d="M602 645h-10" stroke="black" stroke-width="1"/>
    <path d="M602 655h-10" stroke="black" stroke-width="1"/>
    <circle cx="615" cy="650" r="15" stroke="black" stroke-width="1" fill="white"/>
</svg>