<svg xmlns="http://www.w3.org/2000/svg" viewBox="0 0 1000 1000">
    <path d="M550 500v25-1" stroke="black" stroke-width="1"/>
    <path d="M550 575v300-1" stroke="black" stroke-width="1"/>
    <path d="M550 525l25+25 -25 +25-25 -25z" stroke="black" stroke-width="1" fill="white"/>
    <path d="M526 550l9-3 0 6z" fill="black"/>
    <path d="M574 550l-9-3 0 6z" fill="black"/>
    <path d="M530 550h40-1" stroke="black" stroke-width="1"/>

    <path d="M 600 570 A 10 10 0 0 1 580 570" fill="none" stroke="black" stroke-width="1"/>
    <path d="M 600 530 A 10 10 0 1 0 580 530" fill="none" stroke="black" stroke-width="1"/>
    <path d="M580 570l20-40" stroke="black" stroke-width="1"/>
    <path d="M580 530l20+40" stroke="black" stroke-width="1"/>
    <path d="M602 545h-10" stroke="black" stroke-width="1"/>
    <path d="M602 555h-10" stroke="black" stroke-width="1"/>
    <circle cx="615" cy="550" r="15" stroke="black" stroke-width="1" fill="none"/>
</svg>