<svg xmlns="http://www.w3.org/2000/svg" viewBox="0 0 100 100">
  <linearGradient id="stick" x1="0%" y1="0%" x2="0%" y2="100%">
    <stop offset="30%" style="stop-color: rgba(255,255,255,1);"/>
    <stop offset="100%" style="stop-color: rgba(0,0,0,0.3);"/>
  </linearGradient>
    <linearGradient id="pipe" x1="0%" y1="0%" x2="0%" y2="100%">
    <stop offset="20%" style="stop-color: rgba(0,0,0,0.4);"/>
    <stop offset="70%" style="stop-color: rgba(255,255,255,1);"/>
  </linearGradient>
    <polygon points="10,30 10,70 80,70 80,30" fill="black"/>
    <polygon points="11,31 11,69 79,69 79,31" fill="white"/>
    <polygon points="11,31 11,69 79,69 79,31" fill="url(#pipe)"/>
    <polygon points="20,40 20,60 100,60 100,40" fill="black"/>
    <polygon points="21,41 21,59 99,59 99,41" fill="white"/>
    <polygon points="21,41 21,59 99,59 99,41" fill="url(#stick)"/>
    <polygon points="20,33 20,67 35,67 35,33" fill="black"/>
    <polygon points="21,34 21,66 34,66 34,34" fill="white"/>
    <line x1="20" y1="70" x2="20" y2="100" stroke="black"/>
    <line x1="60" y1="70" x2="60" y2="100" stroke="black"/>
    <!-- <line x1="10" y1="25" x2="90" y2="25" stroke="black" stroke-dasharray="2 2"/>
    <line x1="10" y1="75" x2="90" y2="75" stroke="black" stroke-dasharray="2 2"/>
    <line x1="10" y1="25" x2="10" y2="75" stroke="black" stroke-dasharray="2 2"/>
    <line x1="90" y1="25" x2="90" y2="75" stroke="black" stroke-dasharray="2 2"/>
    <polygon points="40,40 40,60 60,60 60,40" fill="black"/>
    <polygon points="41,41 41,59 59,59 59,41" fill="white"/>
    <polygon points="20,40 20,60 40,60 40,40" fill="black"/>
    <polygon points="21,41 21,59 40,59 40,41" fill="white"/>
    <polygon points="60,40 60,60 80,60 80,40" fill="black"/>
    <polygon points="60,41 60,59 79,59 79,41" fill="white"/>
    <line x1="26" y1="45" x2="26" y2="60" stroke="black" stroke-width="0.5"/>
    <polygon points="26,40 24,47 28,47" fill="black"/>
    <line x1="34" y1="40" x2="34" y2="55" stroke="black" stroke-width="0.5"/>
    <polygon points="34,60 32,53 36,53" fill="black"/>
    <line x1="74" y1="40" x2="66" y2="60" stroke="black" stroke-width="0.5"/>
    <polygon points="74,40 70,46 73,47.5" fill="black"/>
    <line x1="66" y1="40" x2="74" y2="60" stroke="black" stroke-width="0.5"/>
    <polygon points="74,60 70,54 73,52.5" fill="black"/>
    <line x1="45" y1="55" x2="45" y2="90" stroke="black"/>
    <line x1="45" y1="90" x2="50" y2="90" stroke="black"/>
    <line x1="50" y1="90" x2="50" y2="100" stroke="black"/>
    <line x1="55" y1="55" x2="55" y2="80" stroke="black"/>
    <line x1="55" y1="80" x2="95" y2="80" stroke="black"/>
    <line x1="95" y1="80" x2="95" y2="50" stroke="black"/>
    <line x1="95" y1="50" x2="100" y2="50" stroke="black"/>
    <line x1="43" y1="55" x2="47" y2="55" stroke="black"/>
    <line x1="53" y1="55" x2="57" y2="55" stroke="black"/>
    <line x1="43" y1="45" x2="47" y2="45" stroke="black"/>
    <line x1="53" y1="45" x2="57" y2="45" stroke="black"/>
    <line x1="45" y1="45" x2="45" y2="20" stroke="black"/>
    <line x1="55" y1="45" x2="55" y2="20" stroke="black"/> -->
</svg>