<svg xmlns="http://www.w3.org/2000/svg" viewBox="0 0 600 300" fill="#FFF">
    <!-- <polygon points="10,5 10,15 590,15 590,5"  stroke="#000" stroke-width="2"/>
    <polygon points="10,20 10,30 590,30 590,20"  stroke="#000" stroke-width="2"/>
    <polygon points="20,30 30,185 570,185 580,30"  stroke="#000" stroke-width="2"/>
    <polygon points="40,185 40,225 70,225 90,185"  stroke="#000" stroke-width="2"/>
    <polygon points="560,185 560,225 530,225 510,185"  stroke="#000" stroke-width="2"/>
    <polygon points="50,50 50,150 70,150 70,50"  stroke="#000" stroke-width="2"/>
    <polygon points="55,55 55,145 65,145 65,55"  stroke="#000" stroke-width="2"/>
    <polygon points="20,160 20,180 40,160 40,180" fill="black"/> -->
    <line x1="50" y1="50" x2="250" y2="50" stroke="#000" stroke-width="2"/>
    <line x1="50" y1="100" x2="250" y2="100" stroke="#000" stroke-width="2"/>
    <line x1="100" y1="50" x2="100" y2="150" stroke="#000" stroke-width="2"/>
    <circle cx="100" cy="50" r="3" fill="#000"/>
    <line x1="200" y1="50" x2="200" y2="150" stroke="#000" stroke-width="2"/>
    <circle cx="200" cy="50" r="3" fill="#000"/>
    <!-- <line x1="550" y1="0" x2="550" y2="150" stroke="#000" stroke-width="2"/> -->
</svg>