<svg xmlns="http://www.w3.org/2000/svg" viewBox="0 0 1000 1000">

  <line x1="260" y1="550" x2="260" y2="800" stroke="#000" stroke-width="2"/>
  <line x1="305" y1="550" x2="305" y2="800" stroke="#000" stroke-width="2"/>
  <line x1="350" y1="550" x2="350" y2="800" stroke="#000" stroke-width="2"/>

  <line x1="140" y1="640" x2="350" y2="640" stroke="#000" stroke-width="2"/>
  <circle cx="140" cy="640" r="50" stroke="black" stroke-width="2px" fill="white"/>
  <text x="140" y="665" font-family="Arial" font-size="70" fill="black" text-anchor="middle">M</text>
  <polygon points="90,703 100,703 110,690 170,690 180,703 190,703 180,703 170,690 110,690 100,703" fill="white" stroke="#000" stroke-width="2"/>Lapy
  
  <polygon points="190,690 205,690 205,680 240,670 240,610 205,600 205,590 190,590" fill="white" stroke="#000" stroke-width="2"/>

  <circle cx="260" cy="640" r="20" stroke="black" stroke-width="2px" fill="white"/>
  <polygon points="255,635 265,635 260,620" fill="black"/>

  <circle cx="305" cy="640" r="20" stroke="black" stroke-width="2px" fill="white"/>
  <polygon points="300,635 310,635 305,620" fill="black"/>

  <circle cx="350" cy="640" r="20" stroke="black" stroke-width="2px" fill="white"/>
  <polygon points="345,635 355,635 350,620" fill="black"/>

    <line x1="260" y1="500" x2="380" y2="500" stroke="#000" stroke-width="2"/>
    <line x1="305" y1="550" x2="380" y2="550" stroke="#000" stroke-width="2"/>
    <line x1="350" y1="600" x2="380" y2="600" stroke="#000" stroke-width="2"/>
    <polygon points="380,485 380,515 410,515 410,485" stroke="#000" stroke-width="2" fill="white"/>
    <polygon points="380,535 380,565 410,565 410,535" stroke="#000" stroke-width="2" fill="white"/>
    <polygon points="380,585 380,615 410,615 410,585" stroke="#000" stroke-width="2" fill="white"/>
    <circle cx="260" cy="500" r="3" stroke="black" stroke-width="2px" fill="black"/>
    <circle cx="305" cy="550" r="3" stroke="black" stroke-width="2px" fill="black"/>
    <circle cx="350" cy="600" r="3" stroke="black" stroke-width="2px" fill="black"/>
</svg>
