<?xml version="1.0" standalone="no"?>
<!DOCTYPE svg PUBLIC "-//W3C//DTD SVG 20010904//EN"
 "http://www.w3.org/TR/2001/REC-SVG-20010904/DTD/svg10.dtd">
<svg version="1.0" xmlns="http://www.w3.org/2000/svg"
 width="300.000000pt" height="190.000000pt" viewBox="0 0 300.000000 190.000000"
 preserveAspectRatio="xMidYMid meet">
<metadata>
Created by potrace 1.10, written by Peter Selinger 2001-2011
</metadata>
<g transform="translate(0.000000,190.000000) scale(0.100000,-0.100000)"
fill="#000000" stroke="none">
<path d="M195 1870 c16 -16 25 -30 19 -31 -5 0 -44 0 -87 1 -59 1 -78 -2 -83
-13 -3 -9 -13 -13 -25 -10 -10 3 -19 0 -19 -6 0 -6 9 -11 20 -11 16 0 20 -7
20 -34 0 -33 2 -35 44 -41 l43 -7 7 -121 c3 -67 18 -333 32 -592 14 -259 28
-590 31 -737 5 -277 23 -375 23 -128 l0 140 114 0 114 0 -39 -128 c-21 -70
-39 -134 -39 -141 0 -35 19 13 55 137 l38 132 546 0 c300 0 773 3 1051 7 l505
6 40 -138 c40 -137 50 -163 58 -155 3 3 -4 32 -14 65 -11 33 -30 97 -43 143
l-24 82 114 0 114 0 2 -147 c2 -112 3 -123 5 -48 3 115 38 847 53 1100 5 94
12 224 15 290 3 66 8 148 11 183 l6 62 39 0 39 0 0 55 0 55 -120 0 c-67 0
-120 4 -120 9 0 5 10 12 23 14 l22 4 -22 2 c-13 0 -23 8 -23 16 0 8 -4 15 -10
15 -5 0 -10 -6 -10 -14 0 -8 -8 -17 -17 -19 -17 -4 -17 -5 0 -6 9 0 17 -5 17
-11 0 -6 -48 -10 -125 -10 -121 0 -125 1 -125 21 0 18 2 19 15 9 24 -20 28 -6
4 15 -22 20 -48 13 -58 -16 -4 -12 -2 -12 12 0 15 12 17 11 17 -8 0 -19 -5
-21 -71 -21 -59 0 -70 3 -65 15 21 51 21 51 3 37 -9 -8 -19 -22 -22 -33 -6
-17 -17 -19 -95 -19 l-89 0 6 30 c3 19 1 30 -6 30 -6 0 -11 -13 -11 -30 l0
-30 -335 0 -335 0 0 30 c0 17 -4 30 -10 30 -5 0 -10 -13 -10 -30 l0 -30 -62 0
-63 0 45 30 c62 41 21 41 -43 0 -44 -28 -55 -30 -137 -30 l-89 0 2 28 c2 27 1
27 -68 30 -38 2 -98 0 -132 -3 -58 -6 -63 -8 -63 -31 0 -24 -1 -24 -95 -24
-88 0 -95 1 -95 20 0 18 7 20 73 22 92 1 94 2 103 11 5 4 -34 6 -86 5 -95 -3
-95 -3 -98 -30 l-3 -27 -175 -3 c-96 -2 -174 -2 -174 0 0 2 14 15 30 29 17 14
28 28 25 31 -3 3 -21 -10 -41 -29 l-36 -34 -27 33 c-15 17 -31 32 -36 32 -5 0
4 -13 20 -30z m865 -7 c0 -22 -3 -23 -95 -23 -94 0 -95 0 -95 24 0 24 1 24 95
23 91 -2 95 -3 95 -24z m-200 -3 c0 -11 -7 -20 -15 -20 -8 0 -15 9 -15 20 0
11 7 20 15 20 8 0 15 -9 15 -20z m-50 -50 c0 -18 -7 -20 -65 -20 -50 0 -65 3
-65 15 0 10 16 15 58 18 31 2 60 4 65 5 4 1 7 -7 7 -18z m190 -1 c0 -12 -13
-16 -65 -17 -55 -1 -65 2 -65 16 0 14 10 17 65 17 53 0 65 -3 65 -16z m201 2
c-14 -9 -51 -15 -102 -16 -68 -2 -79 0 -79 15 0 14 14 16 101 16 93 0 100 -1
80 -15z m219 2 c0 -16 -12 -18 -96 -18 -94 -1 -96 0 -74 17 32 26 170 26 170
1z m690 2 c0 -13 -44 -15 -335 -15 -291 0 -335 2 -335 15 0 13 44 15 335 15
291 0 335 -2 335 -15z m350 0 c0 -13 -26 -15 -170 -15 -144 0 -170 2 -170 15
0 13 26 15 170 15 144 0 170 -2 170 -15z m245 7 c-20 -5 -20 -5 0 -13 12 -4
-34 -8 -107 -8 -107 -1 -128 1 -128 14 0 13 20 15 128 14 70 -1 118 -4 107 -7z
m255 -7 c0 -13 -19 -15 -112 -14 -62 1 -102 4 -88 7 l25 5 -25 8 c-15 4 21 7
88 8 93 1 112 -1 112 -14z m-2730 -10 c0 -12 -16 -15 -85 -15 -69 0 -85 3 -85
15 0 12 16 15 85 15 69 0 85 -3 85 -15z m440 0 c0 -13 -30 -15 -210 -15 -180
0 -210 2 -210 15 0 13 30 15 210 15 180 0 210 -2 210 -15z m2290 -42 l0 -22
-1450 0 c-1426 0 -1450 0 -1450 19 0 19 20 19 1205 17 663 -1 1205 0 1205 3 0
3 110 5 245 5 l245 1 0 -23z m-80 -50 c0 -19 -16 -332 -25 -488 -2 -49 -7
-144 -10 -210 -3 -66 -10 -196 -15 -290 -5 -93 -13 -227 -16 -297 l-6 -128
-1294 -2 c-712 -2 -1294 -3 -1294 -3 -1 0 -40 742 -55 1025 -8 162 -17 319
-19 347 l-4 53 206 2 c114 2 730 4 1370 6 1111 3 1162 2 1162 -15z"/>
<path d="M2212 1885 c3 -16 11 -20 41 -21 36 -1 67 19 53 33 -4 4 -11 1 -16
-7 -7 -12 -11 -12 -25 0 -14 12 -18 12 -26 -1 -8 -12 -10 -12 -20 1 -8 12 -10
12 -7 -5z"/>
<path d="M2362 1883 c2 -10 12 -18 23 -18 11 0 21 8 23 18 3 13 -3 17 -23 17
-20 0 -26 -4 -23 -17z"/>
</g>
</svg>
