<svg xmlns="http://www.w3.org/2000/svg" viewBox="0 0 1000 1000" fill="#FFF">
    <polygon points="10,700 10,710 590,710 590,700"  stroke="#000" stroke-width="2"/>
    <polygon points="10,715 10,725 590,725 590,715"  stroke="#000" stroke-width="2"/>
    <polygon points="20,725 30,935 570,935 580,725"  stroke="#000" stroke-width="2"/>
    <polygon points="40,935 40,975 70,975 90,935"  stroke="#000" stroke-width="2"/>
    <polygon points="560,935 560,975 530,975 510,935"  stroke="#000" stroke-width="2"/>
    <polygon points="50,750 50,850 70,850 70,750"  stroke="#000" stroke-width="2"/>
    <polygon points="55,755 55,845 65,845 65,755"  stroke="#000" stroke-width="2"/>
    <polygon points="20,910 20,930 40,910 40,930" fill="black"/>
    <line x1="350" y1="600" x2="350" y2="900" stroke="#000" stroke-width="2"/>
    <line x1="450" y1="600" x2="450" y2="900" stroke="#000" stroke-width="2"/>
    <line x1="550" y1="600" x2="550" y2="900" stroke="#000" stroke-width="2"/>
</svg>