<svg xmlns="http://www.w3.org/2000/svg" width="2433" height="431" viewBox="0 0 2433 431">
<g>
<path d="M 0.00 14.00 L 0.00 12.00 L 2433.00 12.00 L 2433.00 14.00 L 2285.00 14.00 L 2285.00 168.00 L 2433.00 168.00 L 2433.00 170.00 L 2285.00 170.00 L 2285.00 324.00 L 2433.00 324.00 L 2433.00 326.00 L 1714.00 326.00 L 1714.00 377.50 C1714.00,411.17 1713.65,429.00 1713.00,429.00 C1712.35,429.00 1712.00,411.17 1712.00,377.50 L 1712.00 326.00 L 986.00 326.00 L 986.00 377.50 C986.00,411.17 985.65,429.00 985.00,429.00 C984.34,429.00 984.00,359.17 984.00,221.50 L 984.00 14.00 ZM 986.00 14.00 L 986.00 168.00 L 2284.00 168.00 L 2284.00 14.00 ZM 986.00 170.00 L 986.00 324.00 L 1712.00 324.00 L 1712.00 170.00 ZM 1714.00 170.00 L 1714.00 324.00 L 2284.00 324.00 L 2284.00 170.00 ZM 531.45 298.75 L 530.80 306.00 L 521.00 306.00 L 521.00 296.55 C521.00,281.20 522.90,262.46 525.98,247.48 C528.77,233.90 537.09,202.56 538.98,198.50 C539.49,197.40 540.85,193.24 542.00,189.25 C543.24,184.92 544.62,182.00 545.42,182.00 C546.88,182.00 556.93,186.17 561.15,188.52 C562.61,189.33 564.41,190.01 565.15,190.02 C568.51,190.05 569.21,191.56 567.63,195.35 C566.79,197.36 565.63,199.00 565.05,199.00 C564.47,199.00 564.00,199.92 564.00,201.04 C564.00,203.79 560.04,216.01 558.35,218.47 C557.61,219.56 557.00,221.36 557.00,222.47 C556.99,224.45 553.53,231.00 551.96,232.01 C550.62,232.87 542.04,251.80 539.58,259.34 C538.30,263.28 536.51,270.10 535.61,274.50 C534.70,278.90 533.55,284.52 533.03,287.00 C532.52,289.48 531.81,294.76 531.45,298.75 ZM 1249.40 116.86 C1243.99,119.33 1235.81,117.19 1234.72,113.03 C1234.02,110.37 1236.36,110.35 1239.73,113.00 C1242.79,115.41 1244.82,115.52 1247.78,113.44 C1249.22,112.43 1250.00,110.85 1250.00,108.92 C1250.00,106.00 1249.96,105.98 1247.54,107.57 C1244.20,109.75 1239.72,108.65 1236.53,104.85 C1233.55,101.31 1233.05,93.73 1235.49,89.02 C1237.34,85.44 1238.69,85.02 1247.75,85.21 L 1255.00 85.36 L 1255.00 96.66 C1255.00,109.46 1253.46,115.01 1249.40,116.86 ZM 1317.94 116.53 C1311.84,119.68 1303.08,117.17 1303.02,112.25 C1302.99,110.34 1305.76,110.76 1308.00,113.00 C1309.10,114.10 1310.85,115.00 1311.89,115.00 C1314.34,115.00 1317.65,112.11 1318.48,109.25 C1319.22,106.72 1318.29,106.45 1314.59,108.14 C1308.62,110.86 1302.01,104.32 1302.00,95.67 C1302.00,91.67 1302.50,90.35 1304.92,87.93 C1307.66,85.19 1308.28,85.02 1315.42,85.16 L 1323.00 85.30 L 1323.00 97.00 C1323.00,110.42 1321.95,114.46 1317.94,116.53 ZM 1445.01 108.00 C1441.08,110.10 1436.12,108.73 1432.77,104.62 C1430.34,101.63 1430.41,92.48 1432.90,88.40 C1434.97,85.00 1440.75,83.26 1444.07,85.04 C1446.86,86.53 1447.00,86.33 1447.00,81.00 C1447.00,76.67 1447.27,76.00 1449.00,76.00 C1450.92,76.00 1451.00,76.67 1451.00,92.50 C1451.00,106.20 1450.76,109.00 1449.56,109.00 C1448.77,109.00 1447.84,108.55 1447.50,108.00 C1447.08,107.33 1446.26,107.33 1445.01,108.00 ZM 1206.81 104.00 C1205.37,107.47 1204.16,109.00 1202.87,109.00 C1201.84,109.00 1201.00,108.60 1201.00,108.12 C1201.00,107.63 1203.67,100.32 1206.92,91.87 C1212.52,77.35 1212.99,76.50 1215.52,76.50 C1218.04,76.50 1218.56,77.42 1224.53,92.31 C1229.58,104.90 1230.57,108.23 1229.42,108.67 C1227.30,109.48 1225.48,107.55 1224.12,103.01 L 1222.92 99.00 L 1208.89 99.00 ZM 1486.91 107.35 C1481.47,111.16 1473.00,108.24 1473.00,102.57 C1473.00,97.68 1474.81,96.10 1481.83,94.87 C1485.46,94.23 1488.38,93.16 1488.69,92.37 C1490.27,88.25 1481.48,86.25 1478.27,90.00 C1477.33,91.10 1476.01,92.00 1475.34,92.00 C1472.98,92.00 1473.00,90.12 1475.38,87.34 C1477.54,84.84 1478.46,84.53 1483.88,84.53 C1487.95,84.53 1490.43,85.02 1491.37,86.02 C1493.34,88.08 1494.26,109.00 1492.39,109.00 C1491.68,109.00 1490.68,108.26 1490.18,107.35 C1489.32,105.82 1489.09,105.82 1486.91,107.35 ZM 1341.95 107.53 C1337.65,109.75 1333.29,109.38 1330.45,106.55 C1325.30,101.39 1328.39,96.50 1337.83,94.86 C1341.46,94.23 1344.38,93.17 1344.69,92.37 C1346.29,88.20 1336.25,86.03 1333.77,90.00 C1332.40,92.19 1330.49,92.60 1329.45,90.93 C1328.40,89.21 1333.00,85.09 1336.76,84.39 C1341.66,83.47 1347.65,85.47 1348.34,88.26 C1348.64,89.49 1348.98,94.53 1349.09,99.45 C1349.30,108.42 1348.51,110.52 1346.05,107.56 C1344.94,106.23 1344.47,106.22 1341.95,107.53 ZM 1292.93 107.54 C1287.32,110.44 1280.08,108.74 1277.40,103.89 C1276.67,102.58 1276.05,99.10 1276.04,96.17 C1276.01,91.59 1276.41,90.44 1278.92,87.92 C1281.31,85.54 1282.69,85.00 1286.46,85.00 C1292.17,85.00 1295.55,87.12 1297.04,91.62 C1298.95,97.40 1298.14,98.00 1288.53,98.00 C1283.84,98.00 1280.00,98.41 1280.00,98.92 C1280.00,101.19 1281.47,103.19 1284.17,104.59 C1287.55,106.34 1290.55,105.70 1292.04,102.93 C1293.07,101.00 1297.00,100.19 1297.00,101.92 C1297.00,104.17 1295.54,106.18 1292.93,107.54 ZM 1018.22 44.25 C1017.96,55.17 1017.80,56.00 1015.97,56.00 C1014.10,56.00 1014.00,55.25 1014.00,40.93 L 1014.00 25.87 L 1016.74 26.18 C1019.13,26.46 1020.24,27.94 1025.20,37.50 L 1030.91 48.50 L 1031.20 37.51 C1031.46,27.98 1031.73,26.48 1033.25,26.19 C1034.85,25.88 1035.00,27.11 1035.00,41.00 C1035.00,55.89 1034.97,56.13 1032.87,55.82 C1031.28,55.58 1029.15,52.52 1024.62,44.00 L 1018.50 32.50 ZM 2353.00 279.50 C2351.91,282.04 2350.40,284.00 2349.54,284.00 C2348.69,284.00 2347.99,283.66 2347.98,283.25 C2347.97,282.84 2350.30,276.31 2353.15,268.75 C2357.55,257.09 2358.66,255.00 2360.44,255.00 C2362.20,255.00 2363.49,257.26 2368.28,268.75 C2371.44,276.31 2374.01,282.84 2374.01,283.25 C2374.00,283.66 2373.14,284.00 2372.08,284.00 C2370.73,284.00 2369.66,282.67 2368.45,279.50 L 2366.73 275.00 L 2354.93 275.00 ZM 1127.75 55.94 C1125.96,55.90 1123.06,56.18 1121.31,56.54 C1118.70,57.09 1117.65,56.74 1115.56,54.65 C1110.41,49.51 1113.36,43.16 1121.31,42.27 C1126.49,41.68 1127.34,41.05 1126.35,38.48 C1125.82,37.09 1124.73,36.86 1120.35,37.22 C1115.67,37.61 1115.00,37.44 1115.00,35.83 C1115.00,34.25 1115.86,34.00 1121.44,34.00 C1130.05,34.00 1131.00,35.32 1131.00,47.22 L 1131.00 56.00 ZM 1054.75 55.82 C1052.96,55.80 1050.38,56.05 1049.00,56.37 C1043.37,57.67 1038.90,52.81 1040.71,47.35 C1041.84,43.94 1045.20,42.03 1050.08,42.01 C1054.46,42.00 1055.24,41.32 1053.87,38.75 C1052.96,37.05 1052.03,36.83 1047.40,37.22 C1042.67,37.61 1042.00,37.44 1042.00,35.83 C1042.00,34.25 1042.86,34.00 1048.34,34.00 C1057.19,34.00 1058.00,35.08 1058.00,46.76 L 1058.00 55.86 ZM 1092.75 48.03 C1091.17,53.07 1089.86,55.60 1088.71,55.82 L 1088.60 55.84 C1088.19,55.92 1087.88,55.98 1087.60,55.90 C1086.58,55.62 1086.07,53.50 1083.63,43.69 L 1081.18 33.88 L 1083.32 34.19 C1085.11,34.45 1085.69,35.67 1086.92,41.75 C1087.73,45.74 1088.68,49.00 1089.05,49.00 C1089.42,49.00 1090.57,45.74 1091.61,41.75 C1093.11,35.98 1093.92,34.44 1095.54,34.21 C1097.28,33.96 1097.90,35.03 1099.85,41.66 C1102.42,50.40 1103.17,50.21 1105.03,40.32 C1106.00,35.21 1106.59,34.00 1108.11,34.00 C1108.25,34.00 1108.38,34.00 1108.50,34.00 C1108.98,33.99 1109.34,33.98 1109.55,34.15 C1110.16,34.63 1109.68,36.50 1107.83,43.60 C1107.67,44.23 1107.49,44.90 1107.31,45.61 C1103.83,59.02 1102.30,59.42 1098.48,47.94 C1097.00,43.50 1095.63,40.03 1095.44,40.23 C1095.25,40.42 1094.04,43.93 1092.75,48.03 ZM 1386.00 100.50 C1386.00,106.92 1385.67,109.00 1384.67,109.00 C1383.93,109.00 1383.03,108.70 1382.67,108.33 C1382.30,107.97 1382.00,100.54 1382.00,91.83 C1382.00,76.67 1382.08,76.00 1384.00,76.00 C1385.75,76.00 1386.00,76.67 1386.00,81.38 L 1386.00 86.77 L 1389.96 85.40 C1394.12,83.97 1396.34,84.31 1399.25,86.81 C1400.71,88.06 1401.00,90.05 1401.00,98.73 C1401.00,108.11 1400.83,109.11 1399.25,108.81 C1397.76,108.53 1397.42,106.97 1397.00,98.49 L 1396.50 88.50 L 1393.31 88.19 C1387.70,87.65 1386.00,90.51 1386.00,100.50 ZM 1513.00 107.50 C1511.01,109.89 1505.28,109.37 1502.45,106.55 C1500.19,104.28 1500.00,103.35 1500.00,94.55 C1500.00,85.67 1500.14,85.00 1502.00,85.00 C1503.83,85.00 1504.00,85.67 1504.00,93.07 C1504.00,103.01 1504.92,105.00 1509.50,105.00 C1514.08,105.00 1515.00,103.01 1515.00,93.07 C1515.00,85.10 1515.03,85.00 1517.53,85.00 L 1520.06 85.00 L 1519.78 96.74 C1519.54,106.99 1519.28,108.52 1517.75,108.81 C1516.68,109.02 1516.00,108.53 1516.00,107.57 C1516.00,105.59 1514.62,105.55 1513.00,107.50 ZM 1415.56 115.54 C1414.04,117.87 1410.20,118.87 1408.67,117.33 C1407.30,115.96 1408.07,114.00 1409.98,114.00 C1411.06,114.00 1412.67,112.91 1413.55,111.57 C1415.25,108.98 1414.71,106.87 1408.11,90.25 L 1406.03 85.00 L 1408.38 85.00 C1410.39,85.00 1411.12,86.05 1413.37,92.25 C1414.82,96.24 1416.01,100.29 1416.00,101.25 C1416.00,104.66 1417.52,102.91 1419.32,97.45 C1422.57,87.55 1423.92,85.00 1425.91,85.00 C1427.59,85.00 1427.23,86.50 1422.48,99.04 C1419.56,106.77 1416.45,114.19 1415.56,115.54 ZM 1627.34 116.18 C1625.71,117.98 1621.96,118.63 1620.67,117.33 C1619.16,115.82 1620.15,114.00 1622.47,114.00 C1624.16,114.00 1625.40,113.13 1626.38,111.24 C1627.71,108.67 1627.51,107.75 1623.40,97.54 C1620.98,91.51 1619.00,86.23 1619.00,85.79 C1619.00,85.36 1619.87,85.00 1620.93,85.00 C1622.37,85.00 1623.38,86.46 1624.94,90.75 C1626.08,93.91 1627.62,97.83 1628.34,99.45 L 1629.67 102.40 L 1633.08 93.70 C1635.63,87.22 1636.96,85.01 1638.32,85.00 L 1638.36 85.00 C1638.83,85.00 1639.20,85.00 1639.41,85.18 C1640.17,85.82 1639.04,88.69 1633.97,101.63 L 1633.86 101.93 C1631.18,108.76 1628.25,115.17 1627.34,116.18 ZM 2345.50 212.59 C2340.58,217.51 2333.00,213.52 2333.00,206.00 C2333.00,196.89 2344.25,193.57 2347.64,201.68 C2349.44,205.98 2348.78,209.31 2345.50,212.59 ZM 1590.00 107.00 C1590.00,108.87 1589.33,109.00 1579.50,109.00 C1569.49,109.00 1569.00,108.90 1569.00,106.90 C1569.00,105.71 1572.13,101.25 1576.20,96.65 L 1583.39 88.50 L 1576.70 88.20 C1571.64,87.98 1570.00,87.55 1570.00,86.45 C1570.00,85.28 1571.85,85.00 1579.50,85.00 C1586.56,85.00 1589.00,85.33 1589.00,86.28 C1589.00,86.99 1585.62,91.49 1581.49,96.28 L 1573.98 105.00 L 1581.99 105.00 C1589.33,105.00 1590.00,105.17 1590.00,107.00 ZM 1598.79 100.02 C1598.55,107.14 1598.22,108.53 1596.75,108.81 C1595.16,109.12 1595.00,108.03 1595.00,97.07 C1595.00,85.67 1595.11,85.00 1597.00,85.00 C1598.10,85.00 1599.00,85.51 1599.00,86.12 C1599.00,86.90 1599.47,86.86 1600.51,85.99 C1601.34,85.31 1603.86,84.69 1606.11,84.64 C1612.65,84.46 1614.00,86.95 1614.00,99.18 C1614.00,108.13 1613.82,109.11 1612.25,108.81 C1610.77,108.53 1610.46,107.12 1610.21,99.54 C1610.05,94.63 1609.43,90.02 1608.84,89.30 C1607.28,87.43 1602.58,87.70 1600.70,89.78 C1599.55,91.05 1599.00,93.97 1598.79,100.02 ZM 2376.96 84.02 C2374.13,85.54 2371.51,85.19 2368.63,82.93 C2366.43,81.20 2366.00,80.05 2366.00,76.00 C2366.00,71.95 2366.43,70.80 2368.63,69.07 C2371.74,66.63 2374.74,66.43 2377.66,68.48 C2381.78,71.36 2381.31,81.69 2376.96,84.02 ZM 1562.06 107.97 C1561.00,108.54 1558.63,109.00 1556.79,109.00 C1548.42,109.00 1543.64,99.59 1547.42,90.55 C1549.21,86.26 1551.59,85.00 1557.88,85.00 C1561.92,85.00 1563.19,85.43 1564.44,87.22 C1565.30,88.44 1566.00,90.02 1566.00,90.72 C1566.00,92.73 1562.62,92.22 1561.23,90.00 C1559.64,87.46 1554.89,87.36 1552.66,89.83 C1550.08,92.68 1550.41,101.37 1553.19,103.96 C1556.21,106.77 1558.39,106.52 1561.35,103.00 C1563.53,100.41 1567.00,98.90 1567.00,100.55 C1567.00,102.16 1563.72,107.08 1562.06,107.97 ZM 2393.70 280.33 C2391.63,283.49 2387.39,284.91 2383.29,283.82 C2380.12,282.97 2377.00,279.73 2377.00,277.28 C2377.00,275.17 2379.66,275.84 2381.32,278.37 C2383.39,281.53 2386.51,282.22 2389.13,280.10 C2393.11,276.88 2391.23,270.00 2386.38,270.00 C2384.93,270.00 2384.00,269.41 2384.00,268.50 C2384.00,267.67 2384.84,267.00 2385.88,267.00 C2388.53,267.00 2390.20,264.60 2389.82,261.31 C2389.56,259.03 2388.94,258.44 2386.53,258.16 C2384.25,257.90 2383.04,258.46 2381.39,260.54 C2378.78,263.81 2376.53,263.13 2378.15,259.57 C2380.27,254.92 2387.01,253.65 2391.37,257.07 C2394.32,259.39 2394.94,264.06 2392.59,266.21 C2391.38,267.31 2391.46,267.81 2393.15,269.63 C2395.58,272.26 2395.83,277.08 2393.70,280.33 ZM 2366.00 208.20 C2366.00,212.69 2365.66,214.00 2364.50,214.00 C2363.29,214.00 2363.00,212.46 2363.00,206.14 L 2363.00 198.27 L 2367.65 197.63 C2370.24,197.28 2372.81,197.43 2373.47,197.98 C2374.25,198.62 2375.74,198.55 2377.85,197.75 C2383.15,195.75 2384.45,197.36 2384.79,206.36 C2385.03,212.70 2384.82,214.00 2383.54,214.00 C2382.30,214.00 2382.00,212.64 2382.00,207.00 C2382.00,199.78 2381.53,199.09 2377.58,200.61 C2376.37,201.07 2376.00,202.70 2376.00,207.61 C2376.00,212.62 2375.68,214.00 2374.50,214.00 C2373.35,214.00 2373.00,212.73 2373.00,208.58 C2373.00,202.01 2372.32,200.00 2370.09,200.00 C2367.12,200.00 2366.00,202.25 2366.00,208.20 ZM 1240.00 103.00 C1244.27,107.27 1249.74,104.37 1250.68,97.33 C1251.64,90.16 1244.70,85.25 1239.83,89.65 C1237.19,92.04 1237.30,100.30 1240.00,103.00 ZM 1437.45 103.55 C1440.56,106.65 1442.06,106.63 1445.05,103.44 C1449.81,98.38 1447.11,88.00 1441.03,88.00 C1434.97,88.00 1432.53,98.62 1437.45,103.55 ZM 1308.41 102.90 C1311.90,106.76 1317.23,104.93 1318.62,99.39 C1319.35,96.47 1318.44,91.24 1316.87,89.35 C1315.31,87.46 1309.53,87.66 1307.87,89.65 C1305.79,92.17 1306.12,100.37 1308.41,102.90 ZM 1079.00 54.50 C1079.00,55.72 1077.39,56.00 1070.50,56.00 C1065.00,56.00 1062.00,55.61 1062.00,54.90 C1062.00,54.30 1064.47,50.29 1067.50,46.00 C1070.53,41.71 1073.00,37.93 1073.00,37.60 C1073.00,37.27 1070.75,37.00 1068.00,37.00 C1064.22,37.00 1063.00,36.63 1063.00,35.50 C1063.00,34.29 1064.56,34.00 1071.00,34.00 C1076.13,34.00 1079.00,34.39 1079.00,35.09 C1079.00,35.70 1076.53,39.58 1073.50,43.72 C1070.47,47.86 1068.00,51.64 1068.00,52.13 C1068.00,52.61 1070.47,53.00 1073.50,53.00 C1077.72,53.00 1079.00,53.35 1079.00,54.50 ZM 1365.00 107.24 C1365.00,109.40 1361.23,109.62 1358.51,107.63 C1356.97,106.51 1356.55,104.58 1356.19,97.13 C1355.95,92.11 1355.36,88.00 1354.88,88.00 C1354.39,88.00 1354.00,87.32 1354.00,86.50 C1354.00,85.68 1354.45,85.00 1355.00,85.00 C1355.55,85.00 1356.00,83.67 1356.00,82.04 C1356.00,80.12 1356.69,78.70 1357.94,78.03 C1359.68,77.10 1359.91,77.38 1360.19,80.75 C1360.44,83.79 1360.93,84.56 1362.81,84.83 C1365.65,85.23 1365.16,87.38 1362.13,87.82 C1360.04,88.13 1359.93,88.56 1360.21,95.82 C1360.47,102.68 1360.74,103.61 1362.75,104.49 C1363.99,105.03 1365.00,106.27 1365.00,107.24 ZM 2397.44 214.09 C2395.72,216.89 2389.00,213.21 2389.00,209.47 C2389.00,206.85 2391.72,204.65 2396.25,203.60 C2397.82,203.24 2399.00,202.28 2399.00,201.38 C2399.00,200.12 2398.09,199.87 2394.50,200.16 C2389.72,200.54 2388.11,198.74 2392.25,197.63 C2399.78,195.61 2402.00,197.79 2402.00,207.19 C2402.00,213.74 2401.86,214.20 2400.00,213.71 C2398.90,213.42 2397.75,213.60 2397.44,214.09 ZM 1530.77 92.24 C1530.54,105.96 1530.26,108.52 1528.95,108.77 C1528.10,108.94 1527.09,108.75 1526.70,108.37 C1526.32,107.98 1526.00,100.54 1526.00,91.83 L 1526.00 76.00 L 1531.05 76.00 ZM 2338.69 82.83 C2335.15,86.15 2326.00,85.14 2326.00,81.43 C2326.00,80.24 2326.49,80.00 2327.75,80.55 C2331.42,82.14 2335.60,82.18 2336.89,80.63 C2339.12,77.94 2337.77,75.67 2333.14,74.32 C2327.02,72.55 2325.71,71.23 2326.43,67.56 C2327.24,63.42 2329.48,62.00 2335.19,62.00 C2339.32,62.00 2340.00,62.28 2340.00,63.98 C2340.00,65.71 2339.70,65.82 2337.57,64.85 C2332.86,62.70 2327.29,66.24 2330.08,69.60 C2330.70,70.34 2332.75,71.24 2334.65,71.59 C2336.55,71.95 2338.75,72.89 2339.55,73.69 C2341.74,75.88 2341.32,80.35 2338.69,82.83 ZM 1462.00 101.57 C1462.00,107.09 1461.66,109.00 1460.67,109.00 C1458.26,109.00 1458.00,107.78 1458.00,96.33 L 1458.00 85.00 L 1461.25 84.99 C1463.04,84.98 1465.77,84.94 1467.31,84.89 C1470.71,84.78 1471.24,85.20 1470.42,87.36 C1470.03,88.36 1468.65,89.00 1466.87,89.00 C1463.07,89.00 1462.00,91.77 1462.00,101.57 ZM 1265.19 99.99 C1264.89,106.14 1264.37,109.00 1263.54,109.00 C1261.27,109.00 1261.00,107.66 1261.00,96.33 C1261.00,85.67 1261.12,85.00 1263.00,85.00 C1264.10,85.00 1265.00,85.46 1265.00,86.02 C1265.00,86.59 1266.02,86.38 1267.27,85.56 C1270.06,83.73 1274.23,84.58 1273.78,86.88 C1273.59,87.89 1272.44,88.52 1270.74,88.55 C1266.46,88.62 1265.65,90.29 1265.19,99.99 ZM 2360.88 133.75 C2357.54,144.75 2355.17,151.00 2354.32,151.00 C2352.36,151.00 2352.55,150.04 2358.35,131.00 C2362.39,117.69 2364.09,113.42 2365.43,113.16 C2366.73,112.91 2367.05,113.30 2366.66,114.66 C2366.36,115.67 2363.76,124.26 2360.88,133.75 ZM 2321.00 209.05 C2321.00,212.78 2320.63,214.00 2319.50,214.00 C2318.26,214.00 2318.00,212.11 2318.00,203.00 L 2318.00 192.00 L 2324.58 192.00 C2329.40,192.00 2331.06,192.33 2330.76,193.25 C2330.53,193.95 2328.28,194.63 2325.67,194.80 C2321.24,195.09 2321.00,195.26 2321.00,198.05 C2321.00,200.93 2321.12,201.00 2326.08,201.00 C2332.69,201.00 2332.34,203.37 2325.67,203.80 L 2321.00 204.11 ZM 2387.00 78.12 C2387.00,84.46 2386.40,86.06 2384.67,84.33 C2384.30,83.97 2384.00,80.11 2384.00,75.77 C2384.00,68.83 2384.21,67.90 2385.75,68.10 C2386.71,68.22 2388.70,67.98 2390.16,67.57 C2391.70,67.14 2393.69,67.30 2394.91,67.95 C2396.76,68.94 2397.00,69.97 2397.00,77.12 C2397.00,83.11 2396.68,85.06 2395.75,84.75 C2394.94,84.49 2394.40,81.80 2394.21,77.17 C2393.90,69.74 2393.68,69.44 2389.25,70.63 C2387.19,71.18 2387.00,71.82 2387.00,78.12 ZM 2352.73 83.33 C2352.09,85.28 2348.50,85.21 2346.69,83.22 C2345.53,81.93 2345.00,79.60 2345.00,75.75 C2345.00,72.20 2344.55,70.00 2343.75,69.71 C2342.75,69.34 2342.75,68.99 2343.75,67.93 C2344.44,67.20 2345.00,65.79 2345.00,64.80 C2345.00,62.19 2347.80,62.59 2348.18,65.25 C2348.39,66.70 2349.30,67.61 2350.75,67.82 C2353.84,68.26 2353.60,70.00 2350.45,70.00 C2347.98,70.00 2347.91,70.17 2348.20,75.75 C2348.47,80.89 2348.75,81.53 2350.81,81.83 C2352.08,82.01 2352.94,82.68 2352.73,83.33 ZM 2414.73 213.33 C2414.12,215.18 2410.41,215.27 2408.62,213.48 C2407.50,212.35 2407.00,210.07 2407.00,206.01 C2407.00,202.31 2406.54,199.95 2405.75,199.58 C2404.75,199.12 2404.75,198.88 2405.75,198.42 C2406.44,198.10 2407.00,196.75 2407.00,195.42 C2407.00,192.33 2409.75,192.19 2410.18,195.25 C2410.39,196.70 2411.30,197.61 2412.75,197.82 C2415.84,198.26 2415.60,200.00 2412.45,200.00 C2409.98,200.00 2409.91,200.17 2410.20,205.75 C2410.47,210.89 2410.75,211.53 2412.81,211.83 C2414.08,212.01 2414.94,212.68 2414.73,213.33 ZM 1541.00 97.00 C1541.00,106.33 1540.70,109.00 1539.67,109.00 C1537.26,109.00 1537.00,107.78 1537.00,96.33 C1537.00,85.67 1537.12,85.00 1539.00,85.00 C1540.89,85.00 1541.00,85.67 1541.00,97.00 ZM 2371.10 81.36 C2375.37,84.35 2379.44,78.99 2377.37,73.11 C2376.62,70.97 2375.82,70.50 2372.98,70.50 C2369.55,70.50 2369.50,70.57 2369.20,75.16 C2368.95,79.02 2369.27,80.08 2371.10,81.36 ZM 2337.41 210.61 C2338.10,212.43 2342.42,212.40 2343.94,210.57 C2344.59,209.79 2344.98,207.20 2344.81,204.82 C2344.51,200.61 2344.41,200.50 2341.00,200.50 C2337.58,200.50 2337.49,200.60 2337.19,204.86 C2337.01,207.26 2337.11,209.85 2337.41,210.61 ZM 1210.77 94.43 C1211.61,95.28 1219.82,95.12 1220.29,94.25 C1220.77,93.36 1215.97,80.70 1215.38,81.29 C1214.34,82.33 1210.27,93.93 1210.77,94.43 ZM 2359.00 77.96 C2358.54,83.85 2357.39,86.06 2355.69,84.35 C2355.31,83.98 2355.00,80.22 2355.00,76.00 L 2355.00 68.34 L 2360.06 68.23 C2365.41,68.10 2366.61,69.92 2361.93,71.01 C2359.74,71.52 2359.45,72.22 2359.00,77.96 ZM 1478.58 104.68 C1479.57,105.41 1481.14,106.00 1482.06,106.00 C1484.84,106.00 1489.00,102.06 1489.00,99.43 L 1489.00 99.34 C1489.00,98.35 1489.00,97.72 1488.69,97.41 C1488.15,96.87 1486.69,97.25 1482.71,98.28 L 1482.50 98.33 C1477.02,99.75 1475.41,102.36 1478.58,104.68 ZM 1334.75 104.92 C1338.74,107.24 1343.38,104.77 1344.58,99.68 C1345.25,96.88 1345.23,96.87 1341.38,97.57 C1335.09,98.72 1333.00,99.81 1333.00,101.93 C1333.00,103.01 1333.79,104.36 1334.75,104.92 ZM 1047.23 52.90 C1050.85,54.27 1055.00,51.63 1055.00,47.97 C1055.00,45.26 1054.70,45.00 1051.61,45.00 C1044.86,45.00 1041.64,50.80 1047.23,52.90 ZM 1118.20 51.80 C1118.86,52.46 1120.57,53.00 1122.00,53.00 C1125.36,53.00 1127.00,51.30 1127.00,47.80 C1127.00,45.50 1126.57,45.00 1124.57,45.00 C1118.43,45.00 1115.03,48.63 1118.20,51.80 ZM 2355.20 207.79 C2354.98,212.42 2354.53,214.00 2353.45,214.00 C2352.31,214.00 2352.00,212.35 2352.00,206.16 L 2352.00 198.32 L 2356.55 198.25 C2361.43,198.17 2362.33,199.98 2357.93,201.01 C2355.72,201.53 2355.47,202.15 2355.20,207.79 ZM 2356.50 270.25 C2355.88,271.77 2356.40,272.00 2360.39,272.00 C2362.93,272.00 2365.00,271.66 2365.00,271.25 C2365.00,270.14 2361.52,261.19 2360.83,260.49 C2360.50,260.16 2359.55,261.83 2358.72,264.20 C2357.89,266.56 2356.89,269.29 2356.50,270.25 ZM 1280.00 93.00 C1280.00,93.56 1282.83,94.00 1286.50,94.00 C1290.80,94.00 1293.00,93.60 1293.00,92.83 C1293.00,90.60 1289.68,88.00 1286.84,88.00 C1284.08,88.00 1280.00,90.98 1280.00,93.00 ZM 2409.00 128.00 C2409.00,134.00 2408.60,138.00 2408.00,138.00 C2407.42,138.00 2407.00,134.83 2407.00,130.50 C2407.00,126.38 2406.75,123.00 2406.43,123.00 C2406.12,123.00 2405.03,123.45 2403.99,124.00 C2400.60,125.82 2400.93,123.29 2404.44,120.61 C2406.33,119.18 2408.12,118.00 2408.43,118.00 C2408.74,118.00 2409.00,122.50 2409.00,128.00 ZM 2326.00 128.00 C2326.00,134.00 2325.60,138.00 2325.00,138.00 C2324.42,138.00 2324.00,134.83 2324.00,130.50 C2324.00,126.38 2323.75,123.00 2323.43,123.00 C2323.12,123.00 2322.00,123.47 2320.93,124.04 C2317.98,125.62 2318.50,123.35 2321.75,120.48 C2323.26,119.15 2324.84,118.05 2325.25,118.03 C2325.66,118.01 2326.00,122.50 2326.00,128.00 ZM 2392.31 210.36 C2393.53,213.55 2399.00,211.95 2399.00,208.39 C2399.00,206.75 2398.43,206.00 2397.19,206.00 C2394.37,206.00 2391.59,208.48 2392.31,210.36 ZM 1143.82 36.74 C1143.51,39.36 1141.18,40.85 1139.70,39.37 C1139.32,38.98 1139.00,37.62 1139.00,36.33 C1139.00,34.50 1139.54,34.00 1141.57,34.00 C1143.77,34.00 1144.09,34.38 1143.82,36.74 ZM 1144.00 53.50 C1144.00,55.50 1143.50,56.00 1141.50,56.00 C1139.50,56.00 1139.00,55.50 1139.00,53.50 C1139.00,51.50 1139.50,51.00 1141.50,51.00 C1143.50,51.00 1144.00,51.50 1144.00,53.50 ZM 1541.00 78.50 C1541.00,80.85 1539.18,81.85 1537.67,80.33 C1536.17,78.84 1537.05,76.00 1539.00,76.00 C1540.47,76.00 1541.00,76.67 1541.00,78.50 Z" fill="rgb(37,36,37)"/>
<path d="M 167.87 279.10 C166.43,280.02 154.39,280.20 152.25,279.34 C151.56,279.06 151.06,277.63 151.14,276.17 C151.26,273.81 151.32,273.76 151.71,275.75 C152.11,277.86 152.64,278.00 160.02,278.00 L 167.90 278.00 L 166.44 273.25 C163.82,264.74 163.92,263.32 166.62,270.87 C168.78,276.92 169.00,278.39 167.87,279.10 ZM 466.68 278.65 C465.93,279.40 455.02,279.90 451.75,279.34 C450.02,279.04 449.01,278.24 449.02,277.18 C449.03,276.03 449.27,275.88 449.79,276.70 C450.55,277.89 455.44,278.49 461.88,278.17 C463.20,278.10 464.04,278.07 464.48,277.64 C465.26,276.87 464.82,274.87 463.58,269.25 L 463.53 269.00 C463.23,267.62 463.93,269.12 465.09,272.31 C466.26,275.51 466.97,278.36 466.68,278.65 ZM 531.45 298.75 C531.81,294.76 532.52,289.48 533.03,287.00 C533.33,285.58 533.84,283.11 534.39,280.44 C533.84,284.71 533.62,289.04 533.63,294.00 C533.64,301.28 533.36,305.04 532.96,303.00 L 532.26 299.50 L 532.00 306.00 L 530.80 306.00 ZM 559.00 297.14 C559.00,300.15 558.40,303.44 557.66,304.45 C556.52,306.01 556.45,305.27 557.14,299.49 C558.16,291.02 559.00,289.96 559.00,297.14 ZM 554.38 228.84 C555.73,226.54 556.99,223.67 557.00,222.47 C557.00,221.36 557.61,219.56 558.35,218.47 C560.04,216.01 564.00,203.79 564.00,201.04 C564.00,199.92 564.47,199.00 565.05,199.00 C565.63,199.00 566.79,197.36 567.63,195.35 C568.47,193.34 568.66,191.97 568.16,191.13 C569.18,192.07 568.29,194.24 565.05,201.50 C563.57,204.80 561.55,210.43 560.56,214.00 C558.94,219.83 556.60,225.38 554.38,228.84 ZM 320.68 284.89 C321.24,287.03 320.88,287.54 319.67,286.33 C318.76,285.43 318.82,281.22 319.75,280.68 C320.16,280.45 321.38,280.57 322.45,280.96 C324.32,281.64 324.31,281.69 322.26,282.22 C320.67,282.64 320.27,283.32 320.68,284.89 ZM 406.97 281.00 C406.97,282.38 406.53,284.17 406.00,285.00 C405.31,286.07 405.03,284.92 405.03,281.00 C405.03,277.08 405.31,275.93 406.00,277.00 C406.53,277.83 406.97,279.62 406.97,281.00 ZM 1414.12 94.37 C1416.63,101.25 1417.51,101.64 1420.11,95.08 C1419.86,95.82 1419.59,96.61 1419.32,97.45 C1417.52,102.91 1416.00,104.66 1416.00,101.25 C1416.01,100.46 1415.21,97.58 1414.12,94.37 ZM 201.57 285.80 C202.44,287.04 202.94,288.60 202.69,289.28 C202.44,289.95 201.73,289.23 201.12,287.68 C199.57,283.78 199.72,283.16 201.57,285.80 ZM 566.00 267.38 C566.00,268.21 565.55,269.16 565.00,269.50 C564.45,269.84 564.00,269.44 564.00,268.62 C564.00,267.79 564.45,266.84 565.00,266.50 C565.55,266.16 566.00,266.56 566.00,267.38 ZM 546.31 242.91 C548.88,237.24 551.30,232.43 551.96,232.01 C551.99,231.99 552.02,231.97 552.05,231.95 C550.71,233.95 548.52,238.20 546.31,242.91 ZM 564.90 189.99 C564.06,189.87 562.47,189.25 561.15,188.52 C558.99,187.31 555.28,185.62 551.99,184.27 C555.18,185.58 558.78,187.19 561.00,188.38 C562.00,188.92 563.54,189.55 564.90,189.99 ZM 1426.71 85.34 C1427.31,86.04 1426.28,88.99 1422.51,98.98 C1426.15,89.33 1427.20,86.25 1426.71,85.34 ZM 1412.17 89.10 C1410.78,85.69 1409.99,85.01 1408.40,85.00 C1410.00,85.00 1410.77,85.62 1412.17,89.10 Z" fill="rgb(146,122,123)"/>
<path d="M 250.00 286.50 L 250.00 306.00 L 235.67 306.00 C227.78,306.00 221.03,305.70 220.67,305.33 C220.30,304.97 220.00,287.64 220.00,266.83 L 220.00 229.00 L 250.50 229.08 L 254.00 233.67 C255.93,236.19 257.95,238.95 258.50,239.79 C259.05,240.63 260.50,242.48 261.71,243.91 C262.93,245.33 266.30,249.43 269.20,253.00 C272.09,256.58 274.72,259.73 275.03,260.00 C275.34,260.27 276.62,261.96 277.87,263.75 C282.28,270.07 282.69,268.59 282.19,248.00 L 281.74 229.00 L 310.76 229.00 L 311.49 238.66 C311.89,243.98 311.88,261.30 311.48,277.16 L 310.75 306.00 L 297.28 306.00 C285.26,306.00 283.49,305.78 280.90,303.93 C279.31,302.79 278.00,301.41 278.00,300.85 C278.00,300.30 276.43,297.96 274.52,295.67 C272.60,293.38 269.21,289.25 266.97,286.50 C264.73,283.75 261.75,280.15 260.36,278.50 C254.00,270.99 252.03,268.45 252.02,267.75 C252.01,267.34 251.55,267.00 251.00,267.00 C250.37,267.00 250.00,274.17 250.00,286.50 ZM 45.39 304.42 C44.88,305.76 42.57,306.00 30.06,306.00 C21.96,306.00 15.03,305.70 14.67,305.33 C14.30,304.97 14.00,287.64 14.00,266.83 L 14.00 229.00 L 29.39 229.00 C42.51,229.00 44.88,229.23 45.39,230.58 C45.73,231.45 46.00,237.30 46.00,243.58 L 46.00 255.00 L 73.05 255.00 L 74.08 252.30 C74.64,250.81 74.99,247.55 74.86,245.05 C74.72,242.55 74.70,237.91 74.81,234.75 L 75.00 229.00 L 106.02 229.00 L 105.76 267.25 L 105.50 305.50 L 90.28 305.78 L 75.06 306.05 L 74.78 291.78 L 74.50 277.50 L 60.25 277.22 L 46.00 276.95 L 46.00 289.89 C46.00,297.01 45.73,303.55 45.39,304.42 ZM 863.00 288.00 L 863.00 306.00 L 824.17 306.00 C802.81,306.00 785.03,305.70 784.67,305.33 C784.30,304.97 784.00,287.64 784.00,266.83 L 784.00 229.00 L 861.08 229.00 L 860.50 246.50 L 837.75 246.77 L 815.00 247.04 L 815.00 251.32 C815.00,253.67 815.54,256.14 816.20,256.80 C817.05,257.65 822.81,258.00 835.74,258.00 L 854.08 258.00 L 853.50 275.50 L 815.50 276.50 L 815.19 280.82 L 815.17 281.07 C815.02,283.18 814.91,284.65 815.54,285.68 C816.96,288.00 822.18,288.00 839.26,288.00 L 840.12 288.00 ZM 320.68 284.89 C320.27,283.32 320.67,282.64 322.26,282.22 C324.28,281.69 324.32,281.64 322.51,280.98 C325.10,280.99 329.62,281.00 334.60,281.00 L 348.20 281.00 L 350.86 283.85 C354.71,287.97 359.24,290.00 364.58,290.00 C373.66,290.00 379.82,283.06 373.36,280.12 C371.91,279.46 366.40,278.03 361.11,276.95 C342.74,273.21 338.92,271.95 331.26,267.16 C325.27,263.41 321.51,255.78 322.31,249.02 C323.49,239.06 328.03,234.09 339.93,229.72 C357.68,223.20 384.68,225.94 395.29,235.33 C399.33,238.91 403.33,246.02 402.82,248.71 C402.51,250.31 401.01,250.53 388.58,250.78 L 374.69 251.06 L 372.01 247.84 C369.46,244.79 368.95,244.61 362.31,244.56 C355.22,244.50 352.00,245.77 352.00,248.61 C352.00,251.33 359.37,254.59 369.50,256.35 C390.36,259.97 401.17,265.56 405.11,274.75 C405.48,275.62 405.79,276.38 406.05,277.08 C406.03,277.05 406.02,277.02 406.00,277.00 C405.31,275.93 405.03,277.08 405.03,281.00 C405.03,284.80 405.29,286.00 405.94,285.09 C405.55,286.16 405.03,287.40 404.38,288.90 C400.79,297.18 394.21,302.26 383.54,304.99 C376.47,306.80 355.93,308.57 353.50,307.58 C352.95,307.35 348.30,306.00 343.17,304.57 C338.04,303.15 333.16,301.31 332.34,300.48 C331.52,299.66 330.06,298.57 329.10,298.06 C327.24,297.06 323.04,291.18 320.75,286.95 C321.02,286.81 321.00,286.12 320.68,284.89 ZM 440.86 300.75 L 438.50 305.50 L 423.72 305.78 L 408.95 306.05 L 409.64 303.28 C410.03,301.75 411.33,298.48 412.55,296.00 C415.59,289.80 422.00,275.37 422.00,274.71 C422.00,274.19 426.29,264.67 432.09,252.31 C433.69,248.91 435.00,245.86 435.00,245.52 C435.00,245.19 436.64,241.34 438.64,236.96 L 442.28 229.00 L 458.73 229.00 C474.47,229.00 475.21,229.09 475.72,231.05 C476.02,232.17 477.78,236.26 479.63,240.13 C481.48,244.00 483.00,247.58 483.00,248.09 C483.00,249.10 488.70,261.59 492.60,269.14 C493.92,271.68 495.00,274.32 495.00,274.99 C495.00,275.66 496.28,278.98 497.85,282.36 C499.42,285.74 501.31,290.08 502.05,292.00 C502.78,293.92 504.42,297.47 505.68,299.87 C506.94,302.27 507.72,304.64 507.43,305.12 C507.13,305.60 500.18,306.00 491.98,306.00 L 477.08 306.00 L 473.53 296.00 L 443.21 296.00 ZM 201.57 285.80 C199.72,283.16 199.57,283.78 201.12,287.68 C201.73,289.23 202.44,289.95 202.69,289.28 C202.77,289.07 202.78,288.78 202.72,288.44 C202.90,288.90 203.00,289.22 203.00,289.32 C203.00,289.66 204.13,292.40 205.50,295.41 C206.88,298.41 208.11,301.92 208.25,303.19 L 208.50 305.50 L 178.56 305.50 L 177.53 302.00 C176.91,299.90 176.55,298.54 175.70,297.65 C174.11,296.00 170.80,296.00 160.91,296.00 C160.56,296.00 160.21,296.00 159.85,296.00 L 144.83 296.00 L 140.60 306.00 L 126.47 306.00 C118.69,306.00 112.06,305.73 111.72,305.39 C111.06,304.72 113.71,297.33 117.43,289.50 C121.94,280.00 124.89,273.35 127.01,267.94 C128.18,264.95 129.73,261.59 130.45,260.47 C131.17,259.35 132.57,255.86 133.56,252.72 C134.55,249.57 135.70,247.00 136.10,247.00 C136.51,247.00 137.61,244.64 138.56,241.75 C139.50,238.86 141.12,234.81 142.16,232.75 L 144.04 229.00 L 176.76 229.00 L 178.05 232.25 C178.77,234.04 180.62,238.32 182.18,241.78 C183.73,245.23 185.00,248.31 185.00,248.64 C185.00,248.96 187.09,253.79 189.65,259.36 C192.21,264.94 195.18,271.52 196.26,274.00 C197.33,276.48 199.29,280.79 200.61,283.60 C201.00,284.43 201.36,285.23 201.69,285.97 C201.65,285.91 201.61,285.86 201.57,285.80 ZM 908.69 300.43 L 904.88 306.00 L 887.86 306.00 C875.78,306.00 870.94,305.68 871.21,304.88 C871.56,303.82 873.67,301.20 893.93,276.60 C900.79,268.26 902.69,265.32 902.01,264.10 C901.09,262.47 878.32,234.79 875.54,231.92 C874.69,231.04 874.00,230.03 874.00,229.67 C874.00,229.30 881.82,229.00 891.38,229.00 L 908.77 229.00 L 914.66 237.65 C917.90,242.41 920.99,246.29 921.52,246.28 C922.06,246.26 925.11,242.37 928.31,237.62 L 934.12 229.00 L 969.24 229.00 L 964.42 234.75 C961.77,237.91 958.00,242.33 956.05,244.57 C954.10,246.80 950.70,250.83 948.50,253.51 C946.30,256.19 943.26,259.82 941.75,261.57 C940.24,263.33 939.00,265.22 939.00,265.79 C939.00,266.71 940.99,269.34 948.63,278.50 C950.00,280.15 954.44,285.77 958.50,291.00 C962.55,296.23 966.59,301.30 967.47,302.29 C968.35,303.27 968.80,304.51 968.48,305.04 C968.13,305.59 960.93,306.00 951.51,306.00 L 935.14 306.00 L 932.09 301.48 C930.41,298.99 928.57,296.40 928.00,295.73 C927.43,295.05 925.62,292.59 923.98,290.25 C922.33,287.91 920.56,286.00 920.04,286.00 C919.05,286.00 915.21,290.89 908.69,300.43 ZM 643.06 279.05 L 642.50 305.50 L 627.25 305.78 L 612.00 306.05 L 612.00 229.00 L 685.08 229.00 L 684.50 246.50 L 663.75 246.77 L 643.00 247.04 L 643.00 253.41 C643.00,258.30 643.37,259.93 644.58,260.39 C645.45,260.73 652.87,261.00 661.06,261.00 C661.97,261.00 662.83,261.00 663.64,261.00 C671.37,260.98 674.75,260.97 676.14,262.63 C677.22,263.92 677.10,266.21 676.89,270.28 C676.86,270.83 676.83,271.41 676.80,272.03 L 676.50 278.50 ZM 774.79 296.77 L 774.50 305.50 L 702.00 306.02 L 702.00 229.00 L 732.97 229.00 L 733.23 258.25 L 733.50 287.50 L 754.29 287.77 L 775.08 288.04 ZM 559.00 297.14 C559.00,289.96 558.16,291.02 557.14,299.49 C556.74,302.80 556.60,304.46 556.76,304.98 C555.09,306.01 552.07,306.01 546.37,306.00 C545.94,306.00 545.49,306.00 545.03,306.00 L 533.13 306.00 L 532.72 302.75 L 532.42 300.27 L 532.96 303.00 C533.33,304.88 533.59,301.85 533.62,295.68 C533.69,295.67 533.76,295.65 533.84,295.60 C534.48,295.20 535.00,293.38 535.00,291.55 C535.00,285.99 537.84,272.83 541.41,261.88 C544.80,251.47 545.66,249.39 551.02,238.76 C557.50,225.91 577.65,198.00 580.44,198.00 C581.10,198.00 582.56,199.01 583.70,200.25 C584.83,201.49 588.28,204.89 591.38,207.82 C594.47,210.74 597.00,213.67 597.00,214.33 C597.00,215.00 595.31,217.62 593.25,220.17 C585.23,230.08 583.34,232.71 578.68,240.47 C573.11,249.76 567.42,261.43 566.42,265.60 C566.30,266.11 566.15,266.64 565.99,267.14 C565.91,266.48 565.49,266.20 565.00,266.50 C564.45,266.84 564.00,267.79 564.00,268.62 C564.00,269.42 564.43,269.82 564.96,269.52 C563.44,271.64 559.87,287.74 559.31,295.00 C559.01,298.89 558.87,301.40 558.27,303.03 C558.70,301.53 559.00,299.27 559.00,297.14 ZM 167.87 279.10 C169.00,278.39 168.78,276.92 166.62,270.87 C164.87,265.97 164.21,264.85 164.68,267.00 C164.38,265.81 164.10,264.68 163.90,263.76 C163.32,261.16 162.04,258.03 161.06,256.82 L 159.28 254.63 L 158.01 258.56 C157.32,260.73 155.87,264.47 154.79,266.88 C153.71,269.29 152.59,272.78 152.29,274.63 L 151.96 276.66 C151.85,276.41 151.77,276.11 151.71,275.75 C151.32,273.76 151.26,273.81 151.14,276.17 C151.06,277.63 151.56,279.06 152.25,279.34 C154.39,280.20 166.43,280.02 167.87,279.10 ZM 466.68 278.65 C466.97,278.36 466.26,275.51 465.09,272.31 C463.93,269.12 463.23,267.62 463.53,269.00 L 463.58 269.25 C463.96,270.95 464.26,272.32 464.47,273.42 C463.92,270.71 462.96,266.79 461.70,262.19 C461.06,259.82 459.82,257.24 458.94,256.45 C457.52,255.16 457.03,255.87 454.18,263.26 C452.43,267.79 450.73,272.93 450.39,274.67 C450.17,275.83 450.06,276.57 450.18,277.06 C450.01,276.95 449.87,276.83 449.79,276.70 C449.27,275.88 449.03,276.03 449.02,277.18 C449.01,278.24 450.02,279.04 451.75,279.34 C455.02,279.90 465.93,279.40 466.68,278.65 ZM 464.54 277.58 C464.52,277.60 464.50,277.62 464.48,277.64 C464.04,278.07 463.20,278.10 461.88,278.17 C460.84,278.22 459.84,278.25 458.89,278.25 C461.30,278.12 463.60,277.87 464.54,277.58 ZM 532.16 302.75 L 532.00 306.00 L 532.26 299.50 L 532.31 299.73 ZM 536.72 269.61 C535.75,273.63 534.91,277.74 534.26,281.46 C534.30,281.12 534.34,280.78 534.39,280.44 C534.79,278.46 535.22,276.37 535.61,274.50 C535.90,273.07 536.29,271.37 536.72,269.61 ZM 165.86 271.32 C166.03,271.91 166.23,272.56 166.44,273.25 L 167.90 278.00 L 166.43 273.25 C166.25,272.67 166.06,272.02 165.86,271.32 Z" fill="rgb(201,8,8)"/>
<path d="M 0.00 222.50 L 0.00 14.00 L 492.00 14.00 L 984.00 14.00 L 984.00 221.50 C984.00,359.17 984.34,429.00 985.00,429.00 C985.65,429.00 986.00,411.17 986.00,377.50 L 986.00 326.00 L 1349.00 326.00 L 1712.00 326.00 L 1712.00 377.50 C1712.00,411.17 1712.35,429.00 1713.00,429.00 C1713.65,429.00 1714.00,411.17 1714.00,377.50 L 1714.00 326.00 L 2073.50 326.00 L 2433.00 326.00 L 2433.00 378.50 L 2433.00 431.00 L 1216.50 431.00 L 0.00 431.00 L 0.00 222.50 ZM 383.54 304.99 C394.21,302.26 400.79,297.18 404.38,288.90 C407.50,281.70 407.57,280.49 405.11,274.75 C401.17,265.56 390.36,259.97 369.50,256.35 C359.37,254.59 352.00,251.33 352.00,248.61 C352.00,245.77 355.22,244.50 362.31,244.56 C368.95,244.61 369.46,244.79 372.01,247.84 L 374.69 251.06 L 388.58 250.78 C401.01,250.53 402.51,250.31 402.82,248.71 C403.33,246.02 399.33,238.91 395.29,235.33 C384.68,225.94 357.68,223.20 339.93,229.72 C328.03,234.09 323.49,239.06 322.31,249.02 C321.51,255.78 325.27,263.41 331.26,267.16 C338.92,271.95 342.74,273.21 361.11,276.95 C366.40,278.03 371.91,279.46 373.36,280.12 C379.82,283.06 373.66,290.00 364.58,290.00 C359.24,290.00 354.71,287.97 350.86,283.85 L 348.20 281.00 L 334.60 281.00 C327.12,281.00 320.66,280.98 320.25,280.96 C319.84,280.94 319.36,281.79 319.20,282.85 C318.85,285.01 326.41,296.62 329.10,298.06 C330.06,298.57 331.52,299.66 332.34,300.48 C333.16,301.31 338.04,303.15 343.17,304.57 C348.30,306.00 352.95,307.35 353.50,307.58 C355.93,308.57 376.47,306.80 383.54,304.99 ZM 45.39 304.42 C45.73,303.55 46.00,297.01 46.00,289.89 L 46.00 276.95 L 60.25 277.22 L 74.50 277.50 L 74.78 291.78 L 75.06 306.05 L 90.28 305.78 L 105.50 305.50 L 105.76 267.25 L 106.02 229.00 L 90.51 229.00 L 75.00 229.00 L 74.81 234.75 C74.70,237.91 74.72,242.55 74.86,245.05 C74.99,247.55 74.64,250.81 74.08,252.30 L 73.05 255.00 L 59.52 255.00 L 46.00 255.00 L 46.00 243.58 C46.00,237.30 45.73,231.45 45.39,230.58 C44.88,229.23 42.51,229.00 29.39,229.00 L 14.00 229.00 L 14.00 266.83 C14.00,287.64 14.30,304.97 14.67,305.33 C15.03,305.70 21.96,306.00 30.06,306.00 C42.57,306.00 44.88,305.76 45.39,304.42 ZM 142.72 301.00 L 144.83 296.00 L 159.85 296.00 C176.13,296.00 175.72,295.86 177.53,302.00 L 178.56 305.50 L 193.53 305.50 L 208.50 305.50 L 208.25 303.19 C208.11,301.92 206.88,298.41 205.50,295.41 C204.13,292.40 203.00,289.66 203.00,289.32 C203.00,288.98 201.92,286.40 200.61,283.60 C199.29,280.79 197.33,276.48 196.26,274.00 C195.18,271.52 192.21,264.94 189.65,259.36 C187.09,253.79 185.00,248.96 185.00,248.64 C185.00,248.31 183.73,245.23 182.18,241.78 C180.62,238.32 178.77,234.04 178.05,232.25 L 176.76 229.00 L 160.40 229.00 L 144.04 229.00 L 142.16 232.75 C141.12,234.81 139.50,238.86 138.56,241.75 C137.61,244.64 136.51,247.00 136.10,247.00 C135.70,247.00 134.55,249.57 133.56,252.72 C132.57,255.86 131.17,259.35 130.45,260.47 C129.73,261.59 128.18,264.95 127.01,267.94 C124.89,273.35 121.94,280.00 117.43,289.50 C113.71,297.33 111.06,304.72 111.72,305.39 C112.06,305.73 118.69,306.00 126.47,306.00 L 140.60 306.00 L 142.72 301.00 ZM 250.00 286.50 C250.00,274.17 250.37,267.00 251.00,267.00 C251.55,267.00 252.01,267.34 252.02,267.75 C252.03,268.45 254.00,270.99 260.36,278.50 C261.75,280.15 264.73,283.75 266.97,286.50 C269.21,289.25 272.60,293.38 274.52,295.67 C276.43,297.96 278.00,300.30 278.00,300.85 C278.00,301.41 279.31,302.79 280.90,303.93 C283.49,305.78 285.26,306.00 297.28,306.00 L 310.75 306.00 L 311.48 277.16 C311.88,261.30 311.89,243.98 311.49,238.66 L 310.76 229.00 L 296.25 229.00 L 281.74 229.00 L 282.19 248.00 C282.69,268.59 282.28,270.07 277.87,263.75 C276.62,261.96 275.34,260.27 275.03,260.00 C274.72,259.73 272.09,256.58 269.20,253.00 C266.30,249.43 262.93,245.33 261.71,243.91 C260.50,242.48 259.05,240.63 258.50,239.79 C257.95,238.95 255.93,236.19 254.00,233.67 L 250.50 229.08 L 235.25 229.04 L 220.00 229.00 L 220.00 266.83 C220.00,287.64 220.30,304.97 220.67,305.33 C221.03,305.70 227.78,306.00 235.67,306.00 L 250.00 306.00 L 250.00 286.50 ZM 440.86 300.75 L 443.21 296.00 L 458.37 296.00 L 473.53 296.00 L 475.31 301.00 L 477.08 306.00 L 491.98 306.00 C500.18,306.00 507.13,305.60 507.43,305.12 C507.72,304.64 506.94,302.27 505.68,299.87 C504.42,297.47 502.78,293.92 502.05,292.00 C501.31,290.08 499.42,285.74 497.85,282.36 C496.28,278.98 495.00,275.66 495.00,274.99 C495.00,274.32 493.92,271.68 492.60,269.14 C488.70,261.59 483.00,249.10 483.00,248.09 C483.00,247.58 481.48,244.00 479.63,240.13 C477.78,236.26 476.02,232.17 475.72,231.05 C475.21,229.09 474.47,229.00 458.73,229.00 L 442.28 229.00 L 438.64 236.96 C436.64,241.34 435.00,245.19 435.00,245.52 C435.00,245.86 433.69,248.91 432.09,252.31 C426.29,264.67 422.00,274.19 422.00,274.71 C422.00,275.37 415.59,289.80 412.55,296.00 C411.33,298.48 410.03,301.75 409.64,303.28 L 408.95 306.05 L 423.72 305.78 L 438.50 305.50 L 440.86 300.75 ZM 532.16 302.75 L 532.32 299.50 L 532.72 302.75 L 533.13 306.00 L 545.03 306.00 C558.94,306.00 558.43,306.39 559.31,295.00 C559.87,287.71 563.47,271.52 564.98,269.50 C565.39,268.95 566.04,267.20 566.42,265.60 C567.42,261.43 573.11,249.76 578.68,240.47 C583.34,232.71 585.23,230.08 593.25,220.17 C595.31,217.62 597.00,215.00 597.00,214.33 C597.00,213.67 594.47,210.74 591.38,207.82 C588.28,204.89 584.83,201.49 583.70,200.25 C582.56,199.01 581.10,198.00 580.44,198.00 C577.65,198.00 557.50,225.91 551.02,238.76 C545.66,249.39 544.80,251.47 541.41,261.88 C537.84,272.83 535.00,285.99 535.00,291.55 C535.00,293.38 534.48,295.20 533.84,295.60 C531.02,297.34 535.06,272.66 540.00,257.99 C542.71,249.95 550.50,233.46 552.73,231.03 C555.38,228.15 558.53,221.29 560.56,214.00 C561.55,210.43 563.57,204.80 565.05,201.50 C569.47,191.59 569.52,191.16 566.31,190.40 C564.76,190.03 562.38,189.12 561.00,188.38 C556.59,186.01 546.79,182.00 545.42,182.00 C544.62,182.00 543.24,184.92 542.00,189.25 C540.85,193.24 539.49,197.40 538.98,198.50 C537.09,202.56 528.77,233.90 525.98,247.48 C522.90,262.46 521.00,281.20 521.00,296.55 L 521.00 306.00 L 526.50 306.00 L 532.00 306.00 L 532.16 302.75 ZM 642.78 292.27 L 643.06 279.05 L 659.78 278.77 L 676.50 278.50 L 676.80 272.03 C677.35,260.35 678.28,261.00 661.06,261.00 C652.87,261.00 645.45,260.73 644.58,260.39 C643.37,259.93 643.00,258.30 643.00,253.41 L 643.00 247.04 L 663.75 246.77 L 684.50 246.50 L 684.79 237.75 L 685.08 229.00 L 648.54 229.00 L 612.00 229.00 L 612.00 267.53 L 612.00 306.05 L 627.25 305.78 L 642.50 305.50 L 642.78 292.27 ZM 774.79 296.77 L 775.08 288.04 L 754.29 287.77 L 733.50 287.50 L 733.23 258.25 L 732.97 229.00 L 717.48 229.00 L 702.00 229.00 L 702.00 267.51 L 702.00 306.02 L 738.25 305.76 L 774.50 305.50 L 774.79 296.77 ZM 863.00 297.00 L 863.00 288.00 L 840.12 288.00 C814.38,288.00 814.67,288.08 815.19,280.82 L 815.50 276.50 L 834.50 276.00 L 853.50 275.50 L 853.79 266.75 L 854.08 258.00 L 835.74 258.00 C822.81,258.00 817.05,257.65 816.20,256.80 C815.54,256.14 815.00,253.67 815.00,251.32 L 815.00 247.04 L 837.75 246.77 L 860.50 246.50 L 860.79 237.75 L 861.08 229.00 L 822.54 229.00 L 784.00 229.00 L 784.00 266.83 C784.00,287.64 784.30,304.97 784.67,305.33 C785.03,305.70 802.81,306.00 824.17,306.00 L 863.00 306.00 L 863.00 297.00 ZM 908.69 300.43 C915.21,290.89 919.05,286.00 920.04,286.00 C920.56,286.00 922.33,287.91 923.98,290.25 C925.62,292.59 927.43,295.05 928.00,295.73 C928.57,296.40 930.41,298.99 932.09,301.48 L 935.14 306.00 L 951.51 306.00 C960.93,306.00 968.13,305.59 968.48,305.04 C968.80,304.51 968.35,303.27 967.47,302.29 C966.59,301.30 962.55,296.23 958.50,291.00 C954.44,285.77 950.00,280.15 948.63,278.50 C940.99,269.34 939.00,266.71 939.00,265.79 C939.00,265.22 940.24,263.33 941.75,261.57 C943.26,259.82 946.30,256.19 948.50,253.51 C950.70,250.83 954.10,246.80 956.05,244.57 C958.00,242.33 961.77,237.91 964.42,234.75 L 969.24 229.00 L 951.68 229.00 L 934.12 229.00 L 928.31 237.62 C925.11,242.37 922.06,246.26 921.52,246.28 C920.99,246.29 917.90,242.41 914.66,237.65 L 908.77 229.00 L 891.38 229.00 C881.82,229.00 874.00,229.30 874.00,229.67 C874.00,230.03 874.69,231.04 875.54,231.92 C878.32,234.79 901.09,262.47 902.01,264.10 C902.69,265.32 900.79,268.26 893.93,276.60 C873.67,301.20 871.56,303.82 871.21,304.88 C870.94,305.68 875.78,306.00 887.86,306.00 L 904.88 306.00 L 908.69 300.43 ZM 986.00 247.00 L 986.00 170.00 L 1349.00 170.00 L 1712.00 170.00 L 1712.00 247.00 L 1712.00 324.00 L 1349.00 324.00 L 986.00 324.00 L 986.00 247.00 ZM 1714.00 247.00 L 1714.00 170.00 L 1999.00 170.00 L 2284.00 170.00 L 2284.00 247.00 L 2284.00 324.00 L 1999.00 324.00 L 1714.00 324.00 L 1714.00 247.00 ZM 2285.00 247.00 L 2285.00 170.00 L 2359.00 170.00 L 2433.00 170.00 L 2433.00 247.00 L 2433.00 324.00 L 2359.00 324.00 L 2285.00 324.00 L 2285.00 247.00 ZM 2393.70 280.33 C2395.83,277.08 2395.58,272.26 2393.15,269.63 C2391.46,267.81 2391.38,267.31 2392.59,266.21 C2394.94,264.06 2394.32,259.39 2391.37,257.07 C2387.01,253.65 2380.27,254.92 2378.15,259.57 C2376.53,263.13 2378.78,263.81 2381.39,260.54 C2383.04,258.46 2384.25,257.90 2386.53,258.16 C2388.94,258.44 2389.56,259.03 2389.82,261.31 C2390.20,264.60 2388.53,267.00 2385.88,267.00 C2384.84,267.00 2384.00,267.67 2384.00,268.50 C2384.00,269.41 2384.93,270.00 2386.38,270.00 C2391.23,270.00 2393.11,276.88 2389.13,280.10 C2386.51,282.22 2383.39,281.53 2381.32,278.37 C2379.66,275.84 2377.00,275.17 2377.00,277.28 C2377.00,279.73 2380.12,282.97 2383.29,283.82 C2387.39,284.91 2391.63,283.49 2393.70,280.33 ZM 2353.00 279.50 L 2354.93 275.00 L 2360.83 275.00 L 2366.73 275.00 L 2368.45 279.50 C2369.66,282.67 2370.73,284.00 2372.08,284.00 C2373.14,284.00 2374.00,283.66 2374.01,283.25 C2374.01,282.84 2371.44,276.31 2368.28,268.75 C2363.49,257.26 2362.20,255.00 2360.44,255.00 C2358.66,255.00 2357.55,257.09 2353.15,268.75 C2350.30,276.31 2347.97,282.84 2347.98,283.25 C2347.99,283.66 2348.69,284.00 2349.54,284.00 C2350.40,284.00 2351.91,282.04 2353.00,279.50 ZM 2345.50 212.59 C2348.78,209.31 2349.44,205.98 2347.64,201.68 C2344.25,193.57 2333.00,196.89 2333.00,206.00 C2333.00,213.52 2340.58,217.51 2345.50,212.59 ZM 2397.44 214.09 C2397.75,213.60 2398.90,213.42 2400.00,213.71 C2401.86,214.20 2402.00,213.74 2402.00,207.19 C2402.00,197.79 2399.78,195.61 2392.25,197.63 C2388.11,198.74 2389.72,200.54 2394.50,200.16 C2398.09,199.87 2399.00,200.12 2399.00,201.38 C2399.00,202.28 2397.82,203.24 2396.25,203.60 C2391.72,204.65 2389.00,206.85 2389.00,209.47 C2389.00,213.21 2395.72,216.89 2397.44,214.09 ZM 2414.73 213.33 C2414.94,212.68 2414.08,212.01 2412.81,211.83 C2410.75,211.53 2410.47,210.89 2410.20,205.75 C2409.91,200.17 2409.98,200.00 2412.45,200.00 C2415.60,200.00 2415.84,198.26 2412.75,197.82 C2411.30,197.61 2410.39,196.70 2410.18,195.25 C2409.75,192.19 2407.00,192.33 2407.00,195.42 C2407.00,196.75 2406.44,198.10 2405.75,198.42 C2404.75,198.88 2404.75,199.12 2405.75,199.58 C2406.54,199.95 2407.00,202.31 2407.00,206.01 C2407.00,210.07 2407.50,212.35 2408.62,213.48 C2410.41,215.27 2414.12,215.18 2414.73,213.33 ZM 2321.00 209.05 L 2321.00 204.11 L 2325.67 203.80 C2332.34,203.37 2332.69,201.00 2326.08,201.00 C2321.12,201.00 2321.00,200.93 2321.00,198.05 C2321.00,195.26 2321.24,195.09 2325.67,194.80 C2328.28,194.63 2330.53,193.95 2330.76,193.25 C2331.06,192.33 2329.40,192.00 2324.58,192.00 L 2318.00 192.00 L 2318.00 203.00 C2318.00,212.11 2318.26,214.00 2319.50,214.00 C2320.63,214.00 2321.00,212.78 2321.00,209.05 ZM 2355.20 207.79 C2355.47,202.15 2355.72,201.53 2357.93,201.01 C2362.33,199.98 2361.43,198.17 2356.55,198.25 L 2352.00 198.32 L 2352.00 206.16 C2352.00,212.35 2352.31,214.00 2353.45,214.00 C2354.53,214.00 2354.98,212.42 2355.20,207.79 ZM 2366.00 208.20 C2366.00,202.25 2367.12,200.00 2370.09,200.00 C2372.32,200.00 2373.00,202.01 2373.00,208.58 C2373.00,212.73 2373.35,214.00 2374.50,214.00 C2375.68,214.00 2376.00,212.62 2376.00,207.61 C2376.00,202.70 2376.37,201.07 2377.58,200.61 C2381.53,199.09 2382.00,199.78 2382.00,207.00 C2382.00,212.64 2382.30,214.00 2383.54,214.00 C2384.82,214.00 2385.03,212.70 2384.79,206.36 C2384.45,197.36 2383.15,195.75 2377.85,197.75 C2375.74,198.55 2374.25,198.62 2373.47,197.98 C2372.81,197.43 2370.24,197.28 2367.65,197.63 L 2363.00 198.27 L 2363.00 206.14 C2363.00,212.46 2363.29,214.00 2364.50,214.00 C2365.66,214.00 2366.00,212.69 2366.00,208.20 ZM 986.00 91.00 L 986.00 14.00 L 1635.00 14.00 L 2284.00 14.00 L 2284.00 91.00 L 2284.00 168.00 L 1635.00 168.00 L 986.00 168.00 L 986.00 91.00 ZM 1249.40 116.86 C1253.46,115.01 1255.00,109.46 1255.00,96.66 L 1255.00 85.36 L 1247.75 85.21 C1238.69,85.02 1237.34,85.44 1235.49,89.02 C1233.05,93.73 1233.55,101.31 1236.53,104.85 C1239.72,108.65 1244.20,109.75 1247.54,107.57 C1249.96,105.98 1250.00,106.00 1250.00,108.92 C1250.00,110.85 1249.22,112.43 1247.78,113.44 C1244.82,115.52 1242.79,115.41 1239.73,113.00 C1236.36,110.35 1234.02,110.37 1234.72,113.03 C1235.81,117.19 1243.99,119.33 1249.40,116.86 ZM 1317.94 116.53 C1321.95,114.46 1323.00,110.42 1323.00,97.00 L 1323.00 85.30 L 1315.42 85.16 C1308.28,85.02 1307.66,85.19 1304.92,87.93 C1302.50,90.35 1302.00,91.67 1302.00,95.67 C1302.01,104.32 1308.62,110.86 1314.59,108.14 C1318.29,106.45 1319.22,106.72 1318.48,109.25 C1317.65,112.11 1314.34,115.00 1311.89,115.00 C1310.85,115.00 1309.10,114.10 1308.00,113.00 C1305.76,110.76 1302.99,110.34 1303.02,112.25 C1303.08,117.17 1311.84,119.68 1317.94,116.53 ZM 1415.56 115.54 C1416.45,114.19 1419.57,106.74 1422.51,98.98 C1427.42,85.99 1427.68,84.91 1425.76,85.19 C1424.23,85.42 1423.07,87.18 1421.28,92.00 C1417.52,102.15 1416.90,102.23 1413.62,92.99 C1411.15,86.04 1410.47,85.00 1408.40,85.00 L 1406.03 85.00 L 1408.11 90.25 C1414.71,106.87 1415.25,108.98 1413.55,111.57 C1412.67,112.91 1411.06,114.00 1409.98,114.00 C1408.07,114.00 1407.30,115.96 1408.67,117.33 C1410.20,118.87 1414.04,117.87 1415.56,115.54 ZM 1627.34 116.18 C1628.25,115.17 1631.18,108.76 1633.86,101.93 C1640.53,84.90 1640.50,85.00 1638.32,85.00 C1636.96,85.01 1635.63,87.22 1633.08,93.70 L 1629.67 102.40 L 1628.34 99.45 C1627.62,97.83 1626.08,93.91 1624.94,90.75 C1623.38,86.46 1622.37,85.00 1620.93,85.00 C1619.87,85.00 1619.00,85.36 1619.00,85.79 C1619.00,86.23 1620.98,91.51 1623.40,97.54 C1627.51,107.75 1627.71,108.67 1626.38,111.24 C1625.40,113.13 1624.16,114.00 1622.47,114.00 C1620.15,114.00 1619.16,115.82 1620.67,117.33 C1621.96,118.63 1625.71,117.98 1627.34,116.18 ZM 1206.81 104.00 L 1208.89 99.00 L 1215.90 99.00 L 1222.92 99.00 L 1224.12 103.01 C1225.48,107.55 1227.30,109.48 1229.42,108.67 C1230.57,108.23 1229.58,104.90 1224.53,92.31 C1218.56,77.42 1218.04,76.50 1215.52,76.50 C1212.99,76.50 1212.52,77.35 1206.92,91.87 C1203.67,100.32 1201.00,107.63 1201.00,108.12 C1201.00,108.60 1201.84,109.00 1202.87,109.00 C1204.16,109.00 1205.37,107.47 1206.81,104.00 ZM 1265.19 99.99 C1265.65,90.29 1266.46,88.62 1270.74,88.55 C1272.44,88.52 1273.59,87.89 1273.78,86.88 C1274.23,84.58 1270.06,83.73 1267.27,85.56 C1266.02,86.38 1265.00,86.59 1265.00,86.02 C1265.00,85.46 1264.10,85.00 1263.00,85.00 C1261.12,85.00 1261.00,85.67 1261.00,96.33 C1261.00,107.66 1261.27,109.00 1263.54,109.00 C1264.37,109.00 1264.89,106.14 1265.19,99.99 ZM 1292.93 107.54 C1295.54,106.18 1297.00,104.17 1297.00,101.92 C1297.00,100.19 1293.07,101.00 1292.04,102.93 C1290.55,105.70 1287.55,106.34 1284.17,104.59 C1281.47,103.19 1280.00,101.19 1280.00,98.92 C1280.00,98.41 1283.84,98.00 1288.53,98.00 C1298.14,98.00 1298.95,97.40 1297.04,91.62 C1295.55,87.12 1292.17,85.00 1286.46,85.00 C1282.69,85.00 1281.31,85.54 1278.92,87.92 C1276.41,90.44 1276.01,91.59 1276.04,96.17 C1276.05,99.10 1276.67,102.58 1277.40,103.89 C1280.08,108.74 1287.32,110.44 1292.93,107.54 ZM 1341.95 107.53 C1344.47,106.22 1344.94,106.23 1346.05,107.56 C1348.51,110.52 1349.30,108.42 1349.09,99.45 C1348.98,94.53 1348.64,89.49 1348.34,88.26 C1347.65,85.47 1341.66,83.47 1336.76,84.39 C1333.00,85.09 1328.40,89.21 1329.45,90.93 C1330.49,92.60 1332.40,92.19 1333.77,90.00 C1336.25,86.03 1346.29,88.20 1344.69,92.37 C1344.38,93.17 1341.46,94.23 1337.83,94.86 C1328.39,96.50 1325.30,101.39 1330.45,106.55 C1333.29,109.38 1337.65,109.75 1341.95,107.53 ZM 1365.00 107.24 C1365.00,106.27 1363.99,105.03 1362.75,104.49 C1360.74,103.61 1360.47,102.68 1360.21,95.82 C1359.93,88.56 1360.04,88.13 1362.13,87.82 C1365.16,87.38 1365.65,85.23 1362.81,84.83 C1360.93,84.56 1360.44,83.79 1360.19,80.75 C1359.91,77.38 1359.68,77.10 1357.94,78.03 C1356.69,78.70 1356.00,80.12 1356.00,82.04 C1356.00,83.67 1355.55,85.00 1355.00,85.00 C1354.45,85.00 1354.00,85.68 1354.00,86.50 C1354.00,87.32 1354.39,88.00 1354.88,88.00 C1355.36,88.00 1355.95,92.11 1356.19,97.13 C1356.55,104.58 1356.97,106.51 1358.51,107.63 C1361.23,109.62 1365.00,109.40 1365.00,107.24 ZM 1386.00 100.50 C1386.00,90.51 1387.70,87.65 1393.31,88.19 L 1396.50 88.50 L 1397.00 98.49 C1397.42,106.97 1397.76,108.53 1399.25,108.81 C1400.83,109.11 1401.00,108.11 1401.00,98.73 C1401.00,90.05 1400.71,88.06 1399.25,86.81 C1396.34,84.31 1394.12,83.97 1389.96,85.40 L 1386.00 86.77 L 1386.00 81.38 C1386.00,76.67 1385.75,76.00 1384.00,76.00 C1382.08,76.00 1382.00,76.67 1382.00,91.83 C1382.00,100.54 1382.30,107.97 1382.67,108.33 C1383.03,108.70 1383.93,109.00 1384.67,109.00 C1385.67,109.00 1386.00,106.92 1386.00,100.50 ZM 1445.01 108.00 C1446.26,107.33 1447.08,107.33 1447.50,108.00 C1447.84,108.55 1448.77,109.00 1449.56,109.00 C1450.76,109.00 1451.00,106.20 1451.00,92.50 C1451.00,76.67 1450.92,76.00 1449.00,76.00 C1447.27,76.00 1447.00,76.67 1447.00,81.00 C1447.00,86.33 1446.86,86.53 1444.07,85.04 C1440.75,83.26 1434.97,85.00 1432.90,88.40 C1430.41,92.48 1430.34,101.63 1432.77,104.62 C1436.12,108.73 1441.08,110.10 1445.01,108.00 ZM 1462.00 101.57 C1462.00,91.77 1463.07,89.00 1466.87,89.00 C1468.65,89.00 1470.03,88.36 1470.42,87.36 C1471.24,85.20 1470.71,84.78 1467.31,84.89 C1465.77,84.94 1463.04,84.98 1461.25,84.99 L 1458.00 85.00 L 1458.00 96.33 C1458.00,107.78 1458.26,109.00 1460.67,109.00 C1461.66,109.00 1462.00,107.09 1462.00,101.57 ZM 1486.91 107.35 C1489.09,105.82 1489.32,105.82 1490.18,107.35 C1490.68,108.26 1491.68,109.00 1492.39,109.00 C1494.26,109.00 1493.34,88.08 1491.37,86.02 C1490.43,85.02 1487.95,84.53 1483.88,84.53 C1478.46,84.53 1477.54,84.84 1475.38,87.34 C1473.00,90.12 1472.98,92.00 1475.34,92.00 C1476.01,92.00 1477.33,91.10 1478.27,90.00 C1481.48,86.25 1490.27,88.25 1488.69,92.37 C1488.38,93.16 1485.46,94.23 1481.83,94.87 C1474.81,96.10 1473.00,97.68 1473.00,102.57 C1473.00,108.24 1481.47,111.16 1486.91,107.35 ZM 1513.00 107.50 C1514.62,105.55 1516.00,105.59 1516.00,107.57 C1516.00,108.53 1516.68,109.02 1517.75,108.81 C1519.28,108.52 1519.54,106.99 1519.78,96.74 L 1520.06 85.00 L 1517.53 85.00 C1515.03,85.00 1515.00,85.10 1515.00,93.07 C1515.00,103.01 1514.08,105.00 1509.50,105.00 C1504.92,105.00 1504.00,103.01 1504.00,93.07 C1504.00,85.67 1503.83,85.00 1502.00,85.00 C1500.14,85.00 1500.00,85.67 1500.00,94.55 C1500.00,103.35 1500.19,104.28 1502.45,106.55 C1505.28,109.37 1511.01,109.89 1513.00,107.50 ZM 1530.77 92.24 L 1531.05 76.00 L 1528.52 76.00 L 1526.00 76.00 L 1526.00 91.83 C1526.00,100.54 1526.32,107.98 1526.70,108.37 C1527.09,108.75 1528.10,108.94 1528.95,108.77 C1530.26,108.52 1530.54,105.96 1530.77,92.24 ZM 1541.00 97.00 C1541.00,85.67 1540.89,85.00 1539.00,85.00 C1537.12,85.00 1537.00,85.67 1537.00,96.33 C1537.00,107.78 1537.26,109.00 1539.67,109.00 C1540.70,109.00 1541.00,106.33 1541.00,97.00 ZM 1562.06 107.97 C1563.72,107.08 1567.00,102.16 1567.00,100.55 C1567.00,98.90 1563.53,100.41 1561.35,103.00 C1558.39,106.52 1556.21,106.77 1553.19,103.96 C1550.41,101.37 1550.08,92.68 1552.66,89.83 C1554.89,87.36 1559.64,87.46 1561.23,90.00 C1562.62,92.22 1566.00,92.73 1566.00,90.72 C1566.00,90.02 1565.30,88.44 1564.44,87.22 C1563.19,85.43 1561.92,85.00 1557.88,85.00 C1551.59,85.00 1549.21,86.26 1547.42,90.55 C1543.64,99.59 1548.42,109.00 1556.79,109.00 C1558.63,109.00 1561.00,108.54 1562.06,107.97 ZM 1590.00 107.00 C1590.00,105.17 1589.33,105.00 1581.99,105.00 L 1573.98 105.00 L 1581.49 96.28 C1585.62,91.49 1589.00,86.99 1589.00,86.28 C1589.00,85.33 1586.56,85.00 1579.50,85.00 C1571.85,85.00 1570.00,85.28 1570.00,86.45 C1570.00,87.55 1571.64,87.98 1576.70,88.20 L 1583.39 88.50 L 1576.20 96.65 C1572.13,101.25 1569.00,105.71 1569.00,106.90 C1569.00,108.90 1569.49,109.00 1579.50,109.00 C1589.33,109.00 1590.00,108.87 1590.00,107.00 ZM 1598.79 100.02 C1599.00,93.97 1599.55,91.05 1600.70,89.78 C1602.58,87.70 1607.28,87.43 1608.84,89.30 C1609.43,90.02 1610.05,94.63 1610.21,99.54 C1610.46,107.12 1610.77,108.53 1612.25,108.81 C1613.82,109.11 1614.00,108.13 1614.00,99.18 C1614.00,86.95 1612.65,84.46 1606.11,84.64 C1603.86,84.69 1601.34,85.31 1600.51,85.99 C1599.47,86.86 1599.00,86.90 1599.00,86.12 C1599.00,85.51 1598.10,85.00 1597.00,85.00 C1595.11,85.00 1595.00,85.67 1595.00,97.07 C1595.00,108.03 1595.16,109.12 1596.75,108.81 C1598.22,108.53 1598.55,107.14 1598.79,100.02 ZM 1541.00 78.50 C1541.00,76.67 1540.47,76.00 1539.00,76.00 C1537.05,76.00 1536.17,78.84 1537.67,80.33 C1539.18,81.85 1541.00,80.85 1541.00,78.50 ZM 1054.75 55.82 L 1058.00 55.86 L 1058.00 46.76 C1058.00,35.08 1057.19,34.00 1048.34,34.00 C1042.86,34.00 1042.00,34.25 1042.00,35.83 C1042.00,37.44 1042.67,37.61 1047.40,37.22 C1052.03,36.83 1052.96,37.05 1053.87,38.75 C1055.24,41.32 1054.46,42.00 1050.08,42.01 C1045.20,42.03 1041.84,43.94 1040.71,47.35 C1038.90,52.81 1043.37,57.67 1049.00,56.37 C1050.38,56.05 1052.96,55.80 1054.75,55.82 ZM 1127.75 55.94 L 1131.00 56.00 L 1131.00 47.22 C1131.00,35.32 1130.05,34.00 1121.44,34.00 C1115.86,34.00 1115.00,34.25 1115.00,35.83 C1115.00,37.44 1115.67,37.61 1120.35,37.22 C1124.73,36.86 1125.82,37.09 1126.35,38.48 C1127.34,41.05 1126.49,41.68 1121.31,42.27 C1113.36,43.16 1110.41,49.51 1115.56,54.65 C1117.65,56.74 1118.70,57.09 1121.31,56.54 C1123.06,56.18 1125.96,55.90 1127.75,55.94 ZM 1018.22 44.25 L 1018.50 32.50 L 1024.62 44.00 C1029.15,52.52 1031.28,55.58 1032.87,55.82 C1034.97,56.13 1035.00,55.89 1035.00,41.00 C1035.00,27.11 1034.85,25.88 1033.25,26.19 C1031.73,26.48 1031.46,27.98 1031.20,37.51 L 1030.91 48.50 L 1025.20 37.50 C1020.24,27.94 1019.13,26.46 1016.74,26.18 L 1014.00 25.87 L 1014.00 40.93 C1014.00,55.25 1014.10,56.00 1015.97,56.00 C1017.80,56.00 1017.96,55.17 1018.22,44.25 ZM 1079.00 54.50 C1079.00,53.35 1077.72,53.00 1073.50,53.00 C1070.47,53.00 1068.00,52.61 1068.00,52.13 C1068.00,51.64 1070.47,47.86 1073.50,43.72 C1076.53,39.58 1079.00,35.70 1079.00,35.09 C1079.00,34.39 1076.13,34.00 1071.00,34.00 C1064.56,34.00 1063.00,34.29 1063.00,35.50 C1063.00,36.63 1064.22,37.00 1068.00,37.00 C1070.75,37.00 1073.00,37.27 1073.00,37.60 C1073.00,37.93 1070.53,41.71 1067.50,46.00 C1064.47,50.29 1062.00,54.30 1062.00,54.90 C1062.00,55.61 1065.00,56.00 1070.50,56.00 C1077.39,56.00 1079.00,55.72 1079.00,54.50 ZM 1092.75 48.03 C1094.04,43.93 1095.25,40.42 1095.44,40.23 C1095.63,40.03 1097.00,43.50 1098.48,47.94 C1102.30,59.42 1103.83,59.02 1107.31,45.61 C1110.51,33.25 1110.46,34.00 1108.11,34.00 C1106.59,34.00 1106.00,35.21 1105.03,40.32 C1103.17,50.21 1102.42,50.40 1099.85,41.66 C1097.90,35.03 1097.28,33.96 1095.54,34.21 C1093.92,34.44 1093.11,35.98 1091.61,41.75 C1090.57,45.74 1089.42,49.00 1089.05,49.00 C1088.68,49.00 1087.73,45.74 1086.92,41.75 C1085.69,35.67 1085.11,34.45 1083.32,34.19 L 1081.18 33.88 L 1083.63 43.69 C1086.80,56.43 1086.71,56.20 1088.71,55.82 C1089.86,55.60 1091.17,53.07 1092.75,48.03 ZM 1144.00 53.50 C1144.00,51.50 1143.50,51.00 1141.50,51.00 C1139.50,51.00 1139.00,51.50 1139.00,53.50 C1139.00,55.50 1139.50,56.00 1141.50,56.00 C1143.50,56.00 1144.00,55.50 1144.00,53.50 ZM 1143.82 36.74 C1144.09,34.38 1143.77,34.00 1141.57,34.00 C1139.54,34.00 1139.00,34.50 1139.00,36.33 C1139.00,37.62 1139.32,38.98 1139.70,39.37 C1141.18,40.85 1143.51,39.36 1143.82,36.74 ZM 2285.00 91.00 L 2285.00 14.00 L 2359.00 14.00 L 2433.00 14.00 L 2433.00 91.00 L 2433.00 168.00 L 2359.00 168.00 L 2285.00 168.00 L 2285.00 91.00 ZM 2360.88 133.75 C2363.76,124.26 2366.36,115.67 2366.66,114.66 C2367.05,113.30 2366.73,112.91 2365.43,113.16 C2364.09,113.42 2362.39,117.69 2358.35,131.00 C2352.55,150.04 2352.36,151.00 2354.32,151.00 C2355.17,151.00 2357.54,144.75 2360.88,133.75 ZM 2326.00 128.00 C2326.00,122.50 2325.66,118.01 2325.25,118.03 C2324.84,118.05 2323.26,119.15 2321.75,120.48 C2318.50,123.35 2317.98,125.62 2320.93,124.04 C2322.00,123.47 2323.12,123.00 2323.43,123.00 C2323.75,123.00 2324.00,126.38 2324.00,130.50 C2324.00,134.83 2324.42,138.00 2325.00,138.00 C2325.60,138.00 2326.00,134.00 2326.00,128.00 ZM 2409.00 128.00 C2409.00,122.50 2408.74,118.00 2408.43,118.00 C2408.12,118.00 2406.33,119.18 2404.44,120.61 C2400.93,123.29 2400.60,125.82 2403.99,124.00 C2405.03,123.45 2406.12,123.00 2406.43,123.00 C2406.75,123.00 2407.00,126.38 2407.00,130.50 C2407.00,134.83 2407.42,138.00 2408.00,138.00 C2408.60,138.00 2409.00,134.00 2409.00,128.00 ZM 2338.69 82.83 C2341.32,80.35 2341.74,75.88 2339.55,73.69 C2338.75,72.89 2336.55,71.95 2334.65,71.59 C2332.75,71.24 2330.70,70.34 2330.08,69.60 C2327.29,66.24 2332.86,62.70 2337.57,64.85 C2339.70,65.82 2340.00,65.71 2340.00,63.98 C2340.00,62.28 2339.32,62.00 2335.19,62.00 C2329.48,62.00 2327.24,63.42 2326.43,67.56 C2325.71,71.23 2327.02,72.55 2333.14,74.32 C2337.77,75.67 2339.12,77.94 2336.89,80.63 C2335.60,82.18 2331.42,82.14 2327.75,80.55 C2326.49,80.00 2326.00,80.24 2326.00,81.43 C2326.00,85.14 2335.15,86.15 2338.69,82.83 ZM 2352.73 83.33 C2352.94,82.68 2352.08,82.01 2350.81,81.83 C2348.75,81.53 2348.47,80.89 2348.20,75.75 C2347.91,70.17 2347.98,70.00 2350.45,70.00 C2353.60,70.00 2353.84,68.26 2350.75,67.82 C2349.30,67.61 2348.39,66.70 2348.18,65.25 C2347.80,62.59 2345.00,62.19 2345.00,64.80 C2345.00,65.79 2344.44,67.20 2343.75,67.93 C2342.75,68.99 2342.75,69.34 2343.75,69.71 C2344.55,70.00 2345.00,72.20 2345.00,75.75 C2345.00,79.60 2345.53,81.93 2346.69,83.22 C2348.50,85.21 2352.09,85.28 2352.73,83.33 ZM 2359.00 77.96 C2359.45,72.22 2359.74,71.52 2361.93,71.01 C2366.61,69.92 2365.41,68.10 2360.06,68.23 L 2355.00 68.34 L 2355.00 76.00 C2355.00,80.22 2355.31,83.98 2355.69,84.35 C2357.39,86.06 2358.54,83.85 2359.00,77.96 ZM 2376.96 84.02 C2381.31,81.69 2381.78,71.36 2377.66,68.48 C2374.74,66.43 2371.74,66.63 2368.63,69.07 C2366.43,70.80 2366.00,71.95 2366.00,76.00 C2366.00,80.05 2366.43,81.20 2368.63,82.93 C2371.51,85.19 2374.13,85.54 2376.96,84.02 ZM 2387.00 78.12 C2387.00,71.82 2387.19,71.18 2389.25,70.63 C2393.68,69.44 2393.90,69.74 2394.21,77.17 C2394.40,81.80 2394.94,84.49 2395.75,84.75 C2396.68,85.06 2397.00,83.11 2397.00,77.12 C2397.00,69.97 2396.76,68.94 2394.91,67.95 C2393.69,67.30 2391.70,67.14 2390.16,67.57 C2388.70,67.98 2386.71,68.22 2385.75,68.10 C2384.21,67.90 2384.00,68.83 2384.00,75.77 C2384.00,80.11 2384.30,83.97 2384.67,84.33 C2386.40,86.06 2387.00,84.46 2387.00,78.12 ZM 0.00 6.00 L 0.00 0.00 L 1216.50 0.00 L 2433.00 0.00 L 2433.00 6.00 L 2433.00 12.00 L 1216.50 12.00 L 0.00 12.00 L 0.00 6.00 ZM 152.29 274.63 C152.59,272.78 153.71,269.29 154.79,266.88 C155.87,264.47 157.32,260.73 158.01,258.56 L 159.28 254.63 L 161.06 256.82 C162.04,258.03 163.32,261.16 163.90,263.76 C164.48,266.37 165.62,270.64 166.43,273.25 L 167.90 278.00 L 159.82 278.00 L 151.74 278.00 L 152.29 274.63 ZM 452.64 278.21 C450.01,277.88 449.83,277.59 450.39,274.67 C450.73,272.93 452.43,267.79 454.18,263.26 C457.03,255.87 457.52,255.16 458.94,256.45 C459.82,257.24 461.06,259.82 461.70,262.19 C464.04,270.76 465.36,276.97 464.93,277.39 C464.26,278.05 455.83,278.62 452.64,278.21 ZM 2356.50 270.25 C2356.89,269.29 2357.89,266.56 2358.72,264.20 C2359.55,261.83 2360.50,260.16 2360.83,260.49 C2361.52,261.19 2365.00,270.14 2365.00,271.25 C2365.00,271.66 2362.93,272.00 2360.39,272.00 C2356.40,272.00 2355.88,271.77 2356.50,270.25 ZM 2337.41 210.61 C2337.11,209.85 2337.01,207.26 2337.19,204.86 C2337.49,200.60 2337.58,200.50 2341.00,200.50 C2344.41,200.50 2344.51,200.61 2344.81,204.82 C2344.98,207.20 2344.59,209.79 2343.94,210.57 C2342.42,212.40 2338.10,212.43 2337.41,210.61 ZM 2392.31 210.36 C2391.59,208.48 2394.37,206.00 2397.19,206.00 C2398.43,206.00 2399.00,206.75 2399.00,208.39 C2399.00,211.95 2393.53,213.55 2392.31,210.36 ZM 1240.00 103.00 C1237.30,100.30 1237.19,92.04 1239.83,89.65 C1244.70,85.25 1251.64,90.16 1250.68,97.33 C1249.74,104.37 1244.27,107.27 1240.00,103.00 ZM 1308.41 102.90 C1306.12,100.37 1305.79,92.17 1307.87,89.65 C1309.53,87.66 1315.31,87.46 1316.87,89.35 C1318.44,91.24 1319.35,96.47 1318.62,99.39 C1317.23,104.93 1311.90,106.76 1308.41,102.90 ZM 1210.77 94.43 C1210.27,93.93 1214.34,82.33 1215.38,81.29 C1215.97,80.70 1220.77,93.36 1220.29,94.25 C1219.82,95.12 1211.61,95.28 1210.77,94.43 ZM 1280.00 93.00 C1280.00,90.98 1284.08,88.00 1286.84,88.00 C1289.68,88.00 1293.00,90.60 1293.00,92.83 C1293.00,93.60 1290.80,94.00 1286.50,94.00 C1282.83,94.00 1280.00,93.56 1280.00,93.00 ZM 1334.75 104.92 C1333.79,104.36 1333.00,103.01 1333.00,101.93 C1333.00,99.81 1335.09,98.72 1341.38,97.57 C1345.23,96.87 1345.25,96.88 1344.58,99.68 C1343.38,104.77 1338.74,107.24 1334.75,104.92 ZM 1437.45 103.55 C1432.53,98.62 1434.97,88.00 1441.03,88.00 C1447.11,88.00 1449.81,98.38 1445.05,103.44 C1442.06,106.63 1440.56,106.65 1437.45,103.55 ZM 1478.58 104.68 C1475.41,102.36 1477.02,99.75 1482.50,98.33 C1489.07,96.63 1489.00,96.62 1489.00,99.43 C1489.00,102.06 1484.84,106.00 1482.06,106.00 C1481.14,106.00 1479.57,105.41 1478.58,104.68 ZM 1047.23 52.90 C1041.64,50.80 1044.86,45.00 1051.61,45.00 C1054.70,45.00 1055.00,45.26 1055.00,47.97 C1055.00,51.63 1050.85,54.27 1047.23,52.90 ZM 1118.20 51.80 C1115.03,48.63 1118.43,45.00 1124.57,45.00 C1126.57,45.00 1127.00,45.50 1127.00,47.80 C1127.00,51.30 1125.36,53.00 1122.00,53.00 C1120.57,53.00 1118.86,52.46 1118.20,51.80 ZM 2371.10 81.36 C2369.27,80.08 2368.95,79.02 2369.20,75.16 C2369.50,70.57 2369.55,70.50 2372.98,70.50 C2375.82,70.50 2376.62,70.97 2377.37,73.11 C2379.44,78.99 2375.37,84.35 2371.10,81.36 Z" fill="rgb(254,254,254)"/>
</g>
</svg>