<svg xmlns="http://www.w3.org/2000/svg" xmlns:xlink="http://www.w3.org/1999/xlink" version="1.1" width="256" height="256" viewBox="0 0 256 256" xml:space="preserve">
<g style="stroke: none; stroke-width: 0; stroke-dasharray: none; stroke-linecap: butt; stroke-linejoin: miter; stroke-miterlimit: 10; fill: none; fill-rule: nonzero; opacity: 1;" transform="translate(1.4065934065934016 1.4065934065934016) scale(2.81 2.81)">
	<path d="M 1 21.359 v 55.546 c 0 2.734 2.216 4.95 4.95 4.95 h 78.1 c 2.734 0 4.95 -2.216 4.95 -4.95 V 26.309 c 0 -2.734 -2.216 -4.95 -4.95 -4.95 H 46.032 c -2.515 0 -4.924 -1.013 -6.683 -2.811 l -7.425 -7.591 c -1.759 -1.798 -4.168 -2.811 -6.683 -2.811 H 5.95 c -2.734 0 -4.95 2.216 -4.95 4.95 V 21.359 z" style="stroke: none; stroke-width: 1; stroke-dasharray: none; stroke-linecap: butt; stroke-linejoin: miter; stroke-miterlimit: 10; fill: rgb(47,139,247); fill-rule: nonzero; opacity: 1;" transform=" matrix(1 0 0 1 0 0) " stroke-linecap="round"/>
	<path d="M 84.05 82.854 H 5.95 c -3.281 0 -5.95 -2.669 -5.95 -5.949 v -63.81 c 0 -3.281 2.669 -5.95 5.95 -5.95 H 25.24 c 2.767 0 5.463 1.134 7.398 3.112 l 7.426 7.591 c 1.561 1.595 3.736 2.51 5.968 2.51 H 84.05 c 3.281 0 5.95 2.669 5.95 5.95 v 50.597 C 90 80.186 87.331 82.854 84.05 82.854 z M 5.95 9.145 c -2.178 0 -3.95 1.772 -3.95 3.95 v 63.81 c 0 2.178 1.772 3.949 3.95 3.949 h 78.1 c 2.178 0 3.95 -1.771 3.95 -3.949 V 26.309 c 0 -2.178 -1.772 -3.95 -3.95 -3.95 H 46.032 c -2.767 0 -5.463 -1.134 -7.398 -3.112 l -7.426 -7.591 c -1.561 -1.596 -3.736 -2.511 -5.968 -2.511 H 5.95 z" style="stroke: none; stroke-width: 1; stroke-dasharray: none; stroke-linecap: butt; stroke-linejoin: miter; stroke-miterlimit: 10; fill: rgb(0,0,0); fill-rule: nonzero; opacity: 1;" transform=" matrix(1 0 0 1 0 0) " stroke-linecap="round"/>
	<path d="M 61.824 71.52 H 28.176 c -2.167 0 -3.931 -1.764 -3.931 -3.932 v -4.646 c 0 -0.553 0.448 -1 1 -1 s 1 0.447 1 1 v 4.646 c 0 1.065 0.866 1.932 1.931 1.932 h 33.648 c 1.064 0 1.931 -0.866 1.931 -1.932 v -4.646 c 0 -0.553 0.447 -1 1 -1 s 1 0.447 1 1 v 4.646 C 65.755 69.756 63.991 71.52 61.824 71.52 z" style="stroke: none; stroke-width: 1; stroke-dasharray: none; stroke-linecap: butt; stroke-linejoin: miter; stroke-miterlimit: 10; fill: rgb(0,0,0); fill-rule: nonzero; opacity: 1;" transform=" matrix(1 0 0 1 0 0) " stroke-linecap="round"/>
	<polygon points="51.55,49.39 51.55,63.46 38.45,63.46 38.45,49.39 28.83,49.39 45,33.22 61.17,49.39 " style="stroke: none; stroke-width: 1; stroke-dasharray: none; stroke-linecap: butt; stroke-linejoin: miter; stroke-miterlimit: 10; fill: rgb(255,255,255); fill-rule: nonzero; opacity: 1;" transform="  matrix(1 0 0 1 0 0) "/>
	<path d="M 51.551 64.456 H 38.45 c -0.552 0 -1 -0.447 -1 -1 V 50.393 h -8.622 c -0.404 0 -0.769 -0.243 -0.924 -0.617 s -0.069 -0.804 0.217 -1.09 l 16.172 -16.172 c 0.375 -0.375 1.039 -0.375 1.414 0 l 16.172 16.172 c 0.286 0.286 0.372 0.716 0.217 1.09 c -0.154 0.374 -0.52 0.617 -0.924 0.617 h -8.621 v 13.063 C 52.551 64.009 52.104 64.456 51.551 64.456 z M 39.45 62.456 h 11.101 V 49.393 c 0 -0.553 0.447 -1 1 -1 h 7.207 L 45 34.634 L 31.242 48.393 h 7.208 c 0.552 0 1 0.447 1 1 V 62.456 z" style="stroke: none; stroke-width: 1; stroke-dasharray: none; stroke-linecap: butt; stroke-linejoin: miter; stroke-miterlimit: 10; fill: rgb(0,0,0); fill-rule: nonzero; opacity: 1;" transform=" matrix(1 0 0 1 0 0) " stroke-linecap="round"/>
</g>
</svg>